<?xml version="1.0" encoding="utf-8"?>
<!-- Generator: Adobe Illustrator 22.0.1, SVG Export Plug-In . SVG Version: 6.00 Build 0)  -->
<svg version="1.1" id="Capa_1" xmlns="http://www.w3.org/2000/svg" xmlns:xlink="http://www.w3.org/1999/xlink" x="0px" y="0px"
	 viewBox="0 0 512 512" style="enable-background:new 0 0 512 512;" xml:space="preserve">
<style type="text/css">
	.st0{fill:#076AF2;}
</style>
<path class="st0" d="M91.62,511.95c-4.76,0-8.62-3.87-8.62-8.62s3.87-8.62,8.62-8.62l204.5,0.05c12.54,0,20.36-8.12,23.51-15.71
	c2.8-6.76,3.33-17.02-3.59-25.57l-0.76-0.94l-1.04,0.61c-20.7,12.2-44.38,18.64-68.49,18.64c-36.14,0-70.08-14.04-95.58-39.54
	L40.96,323.05c-48.29-48.3-52.91-125.23-10.74-178.95l11.91-15.17c6.65-8.47,16.62-13.7,27.37-14.34c0.75-0.04,1.5-0.07,2.25-0.07
	c9.92,0,19.63,4.02,26.64,11.03l55.47,55.47c14.69,14.69,14.69,38.58,0,53.27l-17.43,17.43l-0.05,0.06
	c-0.2,0.24-0.41,0.48-0.63,0.71c-0.08,0.08-0.16,0.15-0.24,0.22l-0.18,0.16l-0.05,0.06c-2.15,2.42-3.34,5.53-3.34,8.76
	c0,3.53,1.37,6.85,3.87,9.34l66.33,66.33c2.49,2.5,5.81,3.87,9.34,3.87s6.85-1.37,9.34-3.87l18.06-18.06
	c7.1-7.1,16.56-11.01,26.64-11.01c10.07,0,19.53,3.91,26.63,11.01l55.52,55.51c7.61,7.61,11.61,18.14,10.96,28.89
	c-0.64,10.75-5.87,20.73-14.34,27.37l-14.76,11.59l0.83,1.1c9.13,12.05,11.07,27.71,5.2,41.88C328.83,501.9,313.71,512,296.12,512
	L91.62,511.95z M35.45,166.84C7.53,213.29,14.8,272.51,53.15,310.85l109.21,109.21c22.24,22.24,51.85,34.49,83.37,34.49
	c21.4,0,42.37-5.8,60.64-16.79l1.54-0.93l-81.97-81.97l-0.9,0.45c-4.23,2.11-8.79,3.17-13.55,3.17c-8.14,0-15.78-3.17-21.54-8.92
	l-66.33-66.33c-5.75-5.75-8.92-13.4-8.92-21.54c0-4.76,1.07-9.32,3.17-13.55l0.45-0.9L36.38,165.3L35.45,166.84z M265.51,325.53
	c-5.46,0-10.59,2.12-14.44,5.97l-12.05,12.05l83.05,83.05l11.57-9.08c4.66-3.66,7.42-8.93,7.78-14.84
	c0.35-5.91-1.76-11.47-5.95-15.66l-55.51-55.51C276.1,327.65,270.97,325.53,265.51,325.53z M71.81,131.76
	c-0.42,0-0.85,0.01-1.28,0.04c-5.91,0.36-11.18,3.12-14.84,7.77l-9.08,11.57l83,83l12.05-12.05c3.86-3.86,5.98-8.98,5.98-14.44
	c0-5.45-2.12-10.58-5.98-14.44L86.2,137.74C82.34,133.89,77.23,131.76,71.81,131.76z"/>
<path class="st0" d="M178.64,395.62c-2.3,0-4.47-0.9-6.1-2.53l-91.98-91.98c-3.36-3.36-3.36-8.83,0-12.2
	c1.63-1.63,3.8-2.53,6.1-2.53s4.47,0.9,6.1,2.53l91.98,91.98c3.36,3.36,3.36,8.83,0,12.2C183.11,394.73,180.94,395.62,178.64,395.62
	z"/>
<path class="st0" d="M424.46,96.44c-1.63,1.63-3.8,2.52-6.1,2.52l-150.08,0c-4.75,0-8.62-3.87-8.63-8.63c0-2.31,0.9-4.48,2.52-6.1
	s3.8-2.52,6.1-2.52h150.08c4.75,0,8.62,3.87,8.63,8.63C426.99,92.65,426.09,94.81,424.46,96.44z"/>
<path class="st0" d="M424.46,146.29c-1.63,1.63-3.8,2.52-6.1,2.52H268.28c-4.75,0-8.62-3.87-8.63-8.63c0-2.31,0.9-4.48,2.52-6.1
	s3.8-2.52,6.1-2.52l150.08,0c4.75,0,8.62,3.87,8.63,8.63C426.99,142.5,426.09,144.66,424.46,146.29z"/>
<path class="st0" d="M337.46,264.42c-1.14,0-2.25-0.22-3.3-0.66c-3.23-1.34-5.32-4.47-5.32-7.97v-29.58h-82.18
	c-40.14,0-72.8-32.66-72.8-72.8V74.2c0-40.14,32.66-72.8,72.8-72.8h192.53c40.14,0,72.8,32.66,72.8,72.8v79.22
	c0,40.14-32.66,72.8-72.8,72.8h-59.95l-35.67,35.67C341.93,263.52,339.76,264.42,337.46,264.42z M246.66,18.65
	c-30.63,0-55.55,24.92-55.55,55.55v79.22c0,30.63,24.92,55.55,55.55,55.55h90.81c4.76,0,8.62,3.87,8.62,8.62v17.38l23.48-23.48
	c1.63-1.63,3.79-2.53,6.1-2.53h63.52c30.63,0,55.55-24.92,55.55-55.55V74.2c0-30.63-24.92-55.55-55.55-55.55
	C439.19,18.65,246.66,18.65,246.66,18.65z"/>
</svg>
