<?xml version="1.0" encoding="utf-8"?>
<!-- Generator: Adobe Illustrator 22.0.1, SVG Export Plug-In . SVG Version: 6.00 Build 0)  -->
<svg version="1.1" id="Layer_1" xmlns="http://www.w3.org/2000/svg" xmlns:xlink="http://www.w3.org/1999/xlink" x="0px" y="0px"
	 viewBox="0 0 512 512" style="enable-background:new 0 0 512 512;" xml:space="preserve">
<style type="text/css">
	.st0{fill:#076AF2;stroke:#076AF2;}
</style>
<path class="st0" d="M368.53,382.38v-13.72h129.7v-37.65h-129.7V317.3h44.12V117.05H375v98.47h-13.71v-98.47h-37.65v98.47h-13.71
	v-98.47h-37.65v98.47H258.6v-98.47h-37.65v98.47h-13.71v-98.47h-37.65v98.47h-13.71v-98.47h-37.65v98.47h-13.71v-98.47H77.15
	c-3.78,0-6.85-3.07-6.85-6.85V75.96c0-3,1.91-5.62,4.76-6.54L289.03,0.96c0.68-0.22,1.38-0.33,2.1-0.33c0.71,0,1.41,0.11,2.1,0.33
	L507.2,69.43c2.85,0.91,4.76,3.54,4.76,6.54v34.24c0,3.78-3.08,6.85-6.85,6.85h-27.39v200.27h27.39c3.78,0,6.85,3.07,6.85,6.85
	v51.35c0,3.78-3.08,6.85-6.85,6.85L368.53,382.38L368.53,382.38z M426.36,317.32h37.65V117.05h-37.65V317.32z M84.01,80.96v22.38
	h414.24V80.96L291.13,14.68L84.01,80.96z"/>
<path class="st0" d="M8.68,510.75c-3.78,0-6.85-3.08-6.85-6.85v-291c0-3.78,3.07-6.85,6.85-6.85h359.46c3.78,0,6.85,3.07,6.85,6.85
	v291c0,3.78-3.08,6.85-6.85,6.85H8.68z M220.94,497.04H361.3v-37.58H220.94V497.04z M169.6,497.04h37.65v-89H169.6V497.04z
	 M15.54,497.04h140.35v-37.58H15.54V497.04z M220.94,445.75H361.3v-37.71H220.94V445.75z M15.54,445.75h140.35v-37.71H15.54V445.75z
	 M220.94,394.34H361.3v-174.6H220.94v20.53h87.29c3.78,0,6.85,3.07,6.85,6.85c0,10.38,8.45,18.83,18.83,18.83
	c3.78,0,6.85,3.07,6.85,6.85v68.47c0,3.78-3.07,6.85-6.85,6.85c-10.38,0-18.83,8.45-18.83,18.83c0,3.78-3.07,6.85-6.85,6.85h-87.29
	V394.34z M169.6,394.34h37.65v-174.6H169.6V394.34z M15.54,394.34h140.35v-20.53h-87.3c-3.78,0-6.85-3.08-6.85-6.85
	c0-10.38-8.44-18.83-18.82-18.83c-3.78,0-6.85-3.07-6.85-6.85v-68.47c0-3.78,3.07-6.85,6.85-6.85c10.38,0,18.82-8.45,18.82-18.83
	c0-3.78,3.07-6.85,6.85-6.85h87.29v-20.53H15.54V394.34z M74.43,255.26c-2.98,11.44-11.93,20.4-23.37,23.38l-1.28,0.33v56.15
	l1.28,0.33c11.44,2.99,20.4,11.95,23.37,23.38l0.33,1.28h73.08l-3.4-2.99c-14.4-12.65-22.7-30.91-22.78-50.08
	c0.07-19.15,8.37-37.4,22.78-50.07l3.4-2.99H74.76L74.43,255.26z M232.4,256.97c14.4,12.65,22.7,30.9,22.78,50.08
	c-0.08,19.16-8.38,37.41-22.78,50.07l-3.4,2.99h73.08l0.33-1.28c2.99-11.44,11.95-20.4,23.38-23.38l1.28-0.33v-56.15l-1.28-0.33
	c-11.44-2.99-20.4-11.95-23.38-23.38l-0.33-1.28H229L232.4,256.97z M153.05,267.62c-11.25,10.01-17.7,24.39-17.7,39.43
	c0,15.05,6.45,29.42,17.7,39.43l2.84,2.53v-83.92L153.05,267.62z M220.94,349l2.84-2.53c11.24-10.01,17.69-24.38,17.69-39.43
	c0-15.06-6.45-29.43-17.69-39.43l-2.84-2.53V349z"/>
</svg>
