<?xml version="1.0" encoding="utf-8"?>
<!-- Generator: Adobe Illustrator 22.0.1, SVG Export Plug-In . SVG Version: 6.00 Build 0)  -->
<svg version="1.1" id="Capa_1" xmlns="http://www.w3.org/2000/svg" xmlns:xlink="http://www.w3.org/1999/xlink" x="0px" y="0px"
	 viewBox="0 0 512 512" style="enable-background:new 0 0 512 512;" xml:space="preserve">
<style type="text/css">
	.st0{fill:#076AF2;}
</style>
<path class="st0" d="M236.57,388.66c-4.76,0-8.62-3.87-8.62-8.62v-40.11c0-4.76,3.87-8.62,8.62-8.62h40.11
	c4.76,0,8.62,3.87,8.62,8.62v40.11c0,4.76-3.87,8.62-8.62,8.62H236.57z M245.2,371.42h22.86v-22.86H245.2V371.42z"/>
<path class="st0" d="M316.79,388.66c-4.76,0-8.62-3.87-8.62-8.62v-40.11c0-4.76,3.87-8.62,8.62-8.62h40.11
	c4.76,0,8.62,3.87,8.62,8.62v40.11c0,4.76-3.87,8.62-8.62,8.62H316.79z M325.42,371.42h22.86v-22.86h-22.86V371.42z"/>
<path class="st0" d="M236.57,468.88c-4.76,0-8.62-3.87-8.62-8.62v-40.11c0-4.76,3.87-8.62,8.62-8.62h40.11
	c4.76,0,8.62,3.87,8.62,8.62v40.11c0,4.76-3.87,8.62-8.62,8.62H236.57z M245.2,451.64h22.86v-22.86H245.2V451.64z"/>
<path class="st0" d="M316.79,468.88c-4.76,0-8.62-3.87-8.62-8.62v-40.11c0-4.76,3.87-8.62,8.62-8.62h40.11
	c4.76,0,8.62,3.87,8.62,8.62v40.11c0,4.76-3.87,8.62-8.62,8.62H316.79z M325.42,451.64h22.86v-22.86h-22.86V451.64z"/>
<path class="st0" d="M397.01,468.88c-4.76,0-8.62-3.87-8.62-8.62V339.93c0-4.76,3.87-8.62,8.62-8.62h40.11
	c4.76,0,8.62,3.87,8.62,8.62v120.33c0,4.76-3.87,8.62-8.62,8.62H397.01z M405.64,451.64h22.86V348.55h-22.86V451.64z"/>
<path class="st0" d="M236.57,308.44c-4.76,0-8.62-3.87-8.62-8.62v-86.24c0-4.76,3.87-8.62,8.62-8.62h200.55
	c4.76,0,8.62,3.87,8.62,8.62v86.24c0,4.76-3.87,8.62-8.62,8.62H236.57z M245.2,291.2h183.3v-68.99H245.2V291.2z"/>
<path class="st0" d="M216.52,512c-15.81,0-28.68-12.86-28.68-28.68v-34.49H56.08c-15.81,0-28.68-12.86-28.68-28.68V30.08
	C27.4,14.27,40.27,1.4,56.08,1.4h213.34c3.58,0,7.08,0.66,10.4,1.96c0.14,0.06,0.26,0.11,0.38,0.16c3.72,1.51,7.11,3.79,9.85,6.63
	l67.42,69.79c5.2,5.37,8.06,12.45,8.06,19.93v61.98h91.65c15.81,0,28.68,12.87,28.68,28.68v292.8c0,15.81-12.86,28.68-28.68,28.68
	H216.52z M216.52,179.09c-6.3,0-11.43,5.13-11.43,11.43v292.8c0,6.3,5.13,11.43,11.43,11.43h240.66c6.3,0,11.43-5.13,11.43-11.43
	v-292.8c0-6.3-5.13-11.43-11.43-11.43H216.52z M56.08,18.65c-6.3,0-11.43,5.13-11.43,11.43v390.07c0,6.3,5.13,11.43,11.43,11.43
	h131.76V190.52c0-15.81,12.87-28.68,28.68-28.68h131.76v-42.92h-51.54c-15.81,0-28.68-12.87-28.68-28.68v-71.6H56.08z M285.31,90.24
	c0,6.3,5.13,11.43,11.43,11.43h51.54v-1.82c0-2.98-1.14-5.8-3.21-7.94l-59.77-61.86V90.24z"/>
<path class="st0" d="M75.49,138.98c-4.76,0-8.62-3.87-8.62-8.62c0-4.76,3.87-8.62,8.62-8.62h161.08c4.76,0,8.62,3.87,8.62,8.62
	c0,4.76-3.87,8.62-8.62,8.62H75.49z"/>
<path class="st0" d="M75.49,98.87c-4.76,0-8.62-3.87-8.62-8.62c0-4.76,3.87-8.62,8.62-8.62h161.08c4.76,0,8.62,3.87,8.62,8.62
	c0,4.76-3.87,8.62-8.62,8.62H75.49z"/>
<path class="st0" d="M76.13,222.21c-4.76,0-8.62-3.87-8.62-8.62s3.87-8.62,8.62-8.62h80.22c4.76,0,8.62,3.87,8.62,8.62
	s-3.87,8.62-8.62,8.62H76.13z"/>
<path class="st0" d="M76.13,262.32c-4.76,0-8.62-3.87-8.62-8.62c0-4.76,3.87-8.62,8.62-8.62h20.06c4.76,0,8.62,3.87,8.62,8.62
	c0,4.76-3.87,8.62-8.62,8.62H76.13z"/>
<path class="st0" d="M136.3,262.32c-4.76,0-8.62-3.87-8.62-8.62c0-4.76,3.87-8.62,8.62-8.62h20.05c4.76,0,8.62,3.87,8.62,8.62
	c0,4.76-3.87,8.62-8.62,8.62H136.3z"/>
<path class="st0" d="M76.13,308.44c-4.76,0-8.62-3.87-8.62-8.62s3.87-8.62,8.62-8.62h20.06c4.76,0,8.62,3.87,8.62,8.62
	s-3.87,8.62-8.62,8.62H76.13z"/>
<path class="st0" d="M136.3,308.44c-4.76,0-8.62-3.87-8.62-8.62s3.87-8.62,8.62-8.62h20.05c4.76,0,8.62,3.87,8.62,8.62
	s-3.87,8.62-8.62,8.62H136.3z"/>
<path class="st0" d="M76.13,348.55c-4.76,0-8.62-3.87-8.62-8.62c0-4.76,3.87-8.62,8.62-8.62h20.06c4.76,0,8.62,3.87,8.62,8.62
	c0,4.76-3.87,8.62-8.62,8.62H76.13z"/>
<path class="st0" d="M136.3,348.55c-4.76,0-8.62-3.87-8.62-8.62c0-4.76,3.87-8.62,8.62-8.62h20.05c4.76,0,8.62,3.87,8.62,8.62
	c0,4.76-3.87,8.62-8.62,8.62H136.3z"/>
<path class="st0" d="M76.13,388.66c-4.76,0-8.62-3.87-8.62-8.62c0-4.76,3.87-8.62,8.62-8.62h20.06c4.76,0,8.62,3.87,8.62,8.62
	c0,4.76-3.87,8.62-8.62,8.62H76.13z"/>
<path class="st0" d="M136.3,388.66c-4.76,0-8.62-3.87-8.62-8.62c0-4.76,3.87-8.62,8.62-8.62h20.05c4.76,0,8.62,3.87,8.62,8.62
	c0,4.76-3.87,8.62-8.62,8.62H136.3z"/>
</svg>
