<?xml version="1.0" encoding="utf-8"?>
<!-- Generator: Adobe Illustrator 22.0.1, SVG Export Plug-In . SVG Version: 6.00 Build 0)  -->
<svg version="1.1" id="Capa_1" xmlns="http://www.w3.org/2000/svg" xmlns:xlink="http://www.w3.org/1999/xlink" x="0px" y="0px"
	 viewBox="0 0 512 512" style="enable-background:new 0 0 512 512;" xml:space="preserve">
<path d="M103.7,154.48l-42.67,68.27c-1.64,2.63-1.73,5.95-0.23,8.66s4.36,4.4,7.46,4.4h93.87c9.43,0,17.07-7.64,17.07-17.07v-51.2
	c0-9.43-7.64-17.07-17.07-17.07h-51.2C107.99,150.47,105.26,151.99,103.7,154.48z M83.66,218.74l32-51.2h46.47v51.2H83.66z"/>
<path d="M324.27,218.74v-51.2c0-9.43-7.64-17.07-17.07-17.07h-68.27c-9.43,0-17.07,7.64-17.07,17.07v51.2
	c0,9.43,7.64,17.07,17.07,17.07h68.27C316.63,235.8,324.27,228.16,324.27,218.74z M307.2,218.74h-68.27v-51.2h68.27V218.74z"/>
<path d="M358.4,167.54v51.2c0,9.43,7.64,17.07,17.07,17.07h68.27c9.43,0,17.07-7.64,17.07-17.07v-51.2
	c0-9.43-7.64-17.07-17.07-17.07h-68.27C366.04,150.47,358.4,158.11,358.4,167.54z M375.47,218.74v-51.2h68.27v51.2H375.47
	L375.47,218.74z"/>
<path d="M85.33,123.82c-1.41,1.37-2.66,2.9-3.72,4.55L3.89,252.73C1.35,256.8,0,261.5,0,266.3v80.43c0,14.14,11.46,25.6,25.6,25.6
	h34.9C64.64,396.96,85.96,415,110.93,415s46.29-18.03,50.43-42.66h197.8c4.14,24.63,25.46,42.66,50.43,42.66
	s46.29-18.03,50.43-42.66h26.37c14.14,0,25.6-11.46,25.6-25.6v-204.8c0-14.14-11.46-25.6-25.6-25.6H103.32
	C92.58,116.34,85.33,123.82,85.33,123.82z M375.47,363.8c0-18.85,15.28-34.13,34.13-34.13s34.13,15.28,34.13,34.13
	s-15.28,34.13-34.13,34.13C390.75,397.94,375.47,382.65,375.47,363.8z M76.8,363.8c0-18.85,15.28-34.13,34.13-34.13
	s34.13,15.28,34.13,34.13s-15.28,34.13-34.13,34.13S76.8,382.65,76.8,363.8z M96.09,137.42c1.55-2.5,4.29-4.02,7.23-4.01H486.4
	c4.71,0,8.53,3.82,8.53,8.53v179.2h-17.07c-4.71,0-8.53,3.82-8.53,8.53s3.82,8.53,8.53,8.53h17.07v8.53c0,4.71-3.82,8.53-8.53,8.53
	h-26.37c-4.14-24.63-25.46-42.66-50.43-42.66s-46.29,18.03-50.43,42.66h-197.8c-4.14-24.63-25.46-42.66-50.43-42.66
	s-46.29,18.03-50.43,42.66H25.6c-4.71,0-8.53-3.82-8.53-8.53v-8.53h25.6c4.71,0,8.53-3.82,8.53-8.53s-3.82-8.53-8.53-8.53h-25.6
	V266.3c0-1.6,0.45-3.17,1.3-4.52L96.09,137.42z"/>
<path d="M170.67,329.67c0,4.71,3.82,8.53,8.53,8.53h162.13c4.71,0,8.53-3.82,8.53-8.53s-3.82-8.53-8.53-8.53H179.2
	C174.49,321.14,170.67,324.96,170.67,329.67z"/>
</svg>
