<?xml version="1.0" encoding="utf-8"?>
<!-- Generator: Adobe Illustrator 22.0.1, SVG Export Plug-In . SVG Version: 6.00 Build 0)  -->
<svg version="1.1" id="Layer_1" xmlns="http://www.w3.org/2000/svg" xmlns:xlink="http://www.w3.org/1999/xlink" x="0px" y="0px"
	 viewBox="0 0 512 512" style="enable-background:new 0 0 512 512;" xml:space="preserve">
<style type="text/css">
	.st0{fill:#076AF2;}
</style>
<path class="st0" d="M184.2,179.97c-2.93-2.93-7.68-2.93-10.61,0c-2.93,2.93-2.93,7.68,0,10.61l35.37,35.37
	c4.87,4.87,4.87,12.8,0,17.68l-38.59,38.59l-43.49-43.5c-1.41-1.41-3.3-2.19-5.3-2.19s-3.89,0.78-5.3,2.19
	c-2.93,2.93-2.93,7.69,0,10.61l43.49,43.49l-43.2,43.2c-1.08,1.08-2.51,1.68-4.04,1.68c-1.53,0-2.96-0.6-4.04-1.68L57.17,284.7
	c-1.08-1.08-1.67-2.51-1.67-4.04c0-1.52,0.59-2.96,1.67-4.04l154.14-154.14c2.92-2.93,7.68-2.93,10.61,0l48.79,48.79
	c2.93,2.93,7.68,2.93,10.61,0c2.93-2.93,2.93-7.68,0-10.61l-48.79-48.79c-8.77-8.77-23.05-8.77-31.82,0L46.56,266.02
	c-3.91,3.91-6.06,9.11-6.06,14.64c0,5.54,2.15,10.74,6.07,14.65l51.32,51.32c3.91,3.91,9.11,6.07,14.64,6.07h0.01
	c5.53,0,10.73-2.16,14.64-6.07l92.39-92.39c10.72-10.72,10.72-28.17,0-38.89L184.2,179.97z"/>
<path class="st0" d="M511.98,265.52c-0.62-33.05-14-64.16-37.68-87.58c-0.81-0.8-1.64-1.59-2.47-2.38
	c6.69-13.73,10.45-29.15,10.45-45.43C482.27,72.71,435.55,26,378.13,26c-29.27,0-56.62,12.43-75.96,32.98
	c-5.64-2.12-11.6-3.23-17.66-3.25c-13.14-0.03-38.26,0.04-61.23,0.05c-15.34,0.02-29.76,6-40.61,16.84L17.93,237.37
	C6.37,248.94,0,264.31,0,280.66c0,16.35,6.37,31.72,17.93,43.29l51.32,51.32c11.56,11.56,26.93,17.93,43.28,17.93
	c16.35,0,31.72-6.37,43.28-17.93l85.45-85.45c3.35,8.56,8.45,16.43,15.14,23.12l15.41,15.41l-34.46,34.45
	c-2.83,2.84-4.39,6.6-4.39,10.61v9.39h-9.39c-4,0-7.77,1.56-10.61,4.39l-5.96,5.96c-2.83,2.83-4.39,6.6-4.39,10.61v9.39h-9.39
	c-4.01,0-7.77,1.56-10.61,4.39l-7.55,7.55c-5.2,5.19-8.06,12.1-8.06,19.45v19.14c0,12.4,10.1,22.5,22.5,22.5h19.14
	c7.35,0,14.25-2.86,19.45-8.05l96.76-96.76l15.34,15.34c12.75,12.75,29.7,19.77,47.73,19.77c18.03,0,34.98-7.02,47.73-19.77
	l36.68-36.68C498.19,335.57,512.64,301.13,511.98,265.52z M378.14,41c49.15,0,89.14,39.98,89.14,89.14c0,12.61-2.64,24.62-7.39,35.5
	c-36.78-27.01-83.55-30.99-122.46-15.17l0.01-6.75c0.02-14.16,0.04-26.64,0.02-35.04c-0.03-13.7-5.66-26.87-15.86-37.09
	c-1.85-1.84-3.79-3.53-5.82-5.07C332.13,50.55,354.39,41,378.14,41z M237.07,272.79l-91.86,91.86
	c-8.73,8.73-20.33,13.54-32.68,13.54s-23.95-4.81-32.68-13.54l-51.32-51.32c-18.02-18.02-18.02-47.34,0-65.35L193.28,83.23
	c8.02-8.02,18.68-12.44,30.02-12.45c22.81-0.02,48.6-0.08,61.18-0.05c2.55,0.01,5.08,0.3,7.56,0.85c-3.14,4.61-5.95,9.49-8.34,14.63
	c-12.04,0.42-21.7,10.34-21.7,22.48c0,12.41,10.09,22.5,22.5,22.5s22.5-10.09,22.5-22.5c0-7.29-3.48-13.77-8.87-17.88
	c2.25-4.55,4.86-8.87,7.79-12.91c1.77,1.28,3.46,2.7,5.06,4.3c7.38,7.39,11.45,16.8,11.47,26.52c0.02,8.39,0,20.85-0.02,34.98
	l-0.02,14.08c-9.72,5.57-18.76,12.46-26.89,20.61l-39.11,39.09C242.07,231.8,234.73,251.77,237.07,272.79z M292,108.69
	c0,4.14-3.36,7.5-7.5,7.5s-7.5-3.36-7.5-7.5c0-3.13,1.93-5.82,4.66-6.94c0.81,0.95,1.87,1.72,3.13,2.18
	c1.83,0.67,3.74,0.58,5.41-0.1C291.32,105.14,292,106.84,292,108.69z M217.48,467.53c-2.36,2.36-5.5,3.66-8.84,3.66h-15.54
	l94.86-94.87c2.92-2.93,2.93-7.66,0-10.61c-2.93-2.93-7.66-2.94-10.61,0L182,461.07v-16.52c0-3.34,1.3-6.48,3.66-8.84l7.55-7.55
	h16.89c4.14,0,7.5-3.36,7.5-7.5l0-16.89l5.96-5.96h16.89c4.14,0,7.5-3.36,7.5-7.5l0-16.89l34.46-34.46
	c19.43,19.43,12.12,12.12,31.82,31.82L217.48,467.53z M461.95,349.21c-0.05,0.05-0.1,0.1-0.15,0.15l-36.76,36.76
	c-9.92,9.91-23.1,15.38-37.13,15.38s-27.21-5.46-37.12-15.38l-83.78-83.78c-9.92-9.92-15.38-23.11-15.38-37.13
	c0-14.03,5.47-27.21,15.39-37.13l39.11-39.09c39.22-39.3,101.56-44.13,146.45-9.89c-8.08,12.25-19.09,22.4-32.04,29.43
	c-10.23-6.14-22.11-9.72-34.74-9.83h-0.55c-2.74,0-5.49,0.16-8.19,0.48c-10.21,1.2-18.66,7.98-22.03,17.69
	c-3.38,9.72-0.95,20.27,6.32,27.54c6.23,6.23,14.83,9.79,23.67,9.79h0.15h0.25c7.1,0.08,13.44,6.36,13.57,13.43
	c0,0.27,0,0.52,0,0.77c-0.24,8.44,3.17,16.83,9.35,23.01l0.46,0.45c5.11,5.11,11.84,7.82,18.78,7.82c2.94,0,5.91-0.49,8.81-1.49
	c9.62-3.32,16.36-11.62,17.59-21.67c0.4-3.26,0.57-6.61,0.51-9.93c-0.35-18.8-8.43-35.88-21.13-48.21
	c12.1-7.6,22.53-17.61,30.61-29.36c19.88,19.82,32.45,46.96,33.01,76.77C497.57,297.23,484.8,327.63,461.95,349.21z M385.54,239.19
	h-0.32c-0.02,0-0.13,0-0.15,0c-0.03,0-0.05,0-0.08,0c-4.71,0-9.3-1.86-12.71-5.1c1.95,0.11,3.91,0.18,5.86,0.18
	c14.59,0,28.48-3.02,41.09-8.46c12.07,9.78,19.96,24.58,20.26,41.06c0.05,2.63-0.08,5.26-0.39,7.83c-0.54,4.38-3.38,7.86-7.59,9.31
	c-4.35,1.5-8.87,0.46-12.1-2.76l-0.45-0.46c-3.28-3.28-5.09-7.64-4.96-11.99c0.01-0.48,0.02-0.96,0.01-1.45
	C413.71,252.26,400.71,239.36,385.54,239.19z M370.63,218.95c1.85-2.71,4.74-4.48,8.18-4.89c2.12-0.25,4.29-0.38,6.42-0.38l0.49,0
	c5.45,0.04,10.71,0.91,15.69,2.49c-7.42,2.01-15.22,3.09-23.27,3.09C375.63,219.27,373.12,219.16,370.63,218.95z"/>
<path class="st0" d="M370.88,331.62l-48.19-48.19c-2.93-2.93-2.93-7.68,0-10.61l0,0c2.93-2.93,7.68-2.93,10.61,0l48.19,48.19
	c2.93,2.93,2.93,7.68,0,10.61v0C378.55,334.55,373.8,334.55,370.88,331.62z"/>
</svg>
