<?xml version="1.0" encoding="utf-8"?>
<!-- Generator: Adobe Illustrator 22.0.1, SVG Export Plug-In . SVG Version: 6.00 Build 0)  -->
<svg version="1.1" id="Layer_1" xmlns="http://www.w3.org/2000/svg" xmlns:xlink="http://www.w3.org/1999/xlink" x="0px" y="0px"
	 viewBox="0 0 512 512" style="enable-background:new 0 0 512 512;" xml:space="preserve">
<style type="text/css">
	.st0{fill:#076AF2;stroke:#076AF2;}
</style>
<path class="st0" d="M93.5,314.61c-3.54-0.19-6.36-3.13-6.36-6.72v-80.56l-2.04,0.27c-7.87,1.07-15.92,1.64-23.94,1.69H1.8v-13.47
	h59.37c8.11-0.05,16.33-0.68,24.43-1.87l1.53-0.23v-50.56l-3.2,3.99c-14.27,17.79-35.53,27.99-58.33,27.99H1.8v-13.47h23.8
	c33.89-0.04,61.49-27.64,61.53-61.53c0-3.71,3.02-6.73,6.73-6.73h68.27c21.02-0.02,39.35-14.98,43.58-35.57l0.45-2.16H1.8V62.22
	h292.6c8.05,0,14.6-6.55,14.6-14.6s-6.55-14.6-14.6-14.6H64.34c-7.9,0-15.59,1.48-22.85,4.39L12.72,48.94L7.7,36.43l28.81-11.51
	c8.89-3.56,18.25-5.37,27.82-5.37H294.4c15.48,0,28.07,12.59,28.07,28.07c-0.02,4.13-0.99,8.28-2.82,12.01l-1.26,2.59h99.75
	c3.71,0,6.73,3.02,6.73,6.73v238.93c0,3.71-3.02,6.73-6.73,6.73H93.5z M100.6,301.15h310.8v-34.67H100.6V301.15z M100.6,253.02
	h310.8V75.68H219.63l-0.22,1.55c-0.82,5.73-2.51,11.3-5,16.55l-1.24,2.57h153.77c3.71,0,6.73,3.02,6.73,6.73
	c0,5.7,4.63,10.33,10.33,10.33c3.71,0,6.73,3.02,6.73,6.73v68.27c0,3.71-3.02,6.73-6.73,6.73c-5.7,0-10.33,4.63-10.33,10.33
	c0,3.71-3.02,6.73-6.73,6.73H145.07c-3.71,0-6.73-3.02-6.73-6.73c0-5.7-4.63-10.33-10.33-10.33c-3.71,0-6.73-3.02-6.73-6.73v-61.53
	H100.6V253.02z M256,109.82c-19.81,0-35.93,19.95-35.93,44.47c0,24.52,16.12,44.47,35.93,44.47c19.81,0,35.93-19.95,35.93-44.47
	C291.93,129.77,275.81,109.82,256,109.82z M290.38,112.77c20.03,24.06,20.03,58.98,0,83.03l-2.46,2.95h73.21l0.43-1.19
	c2.42-6.81,7.71-12.1,14.51-14.52l1.19-0.43v-56.65l-1.19-0.43c-6.81-2.43-12.1-7.72-14.52-14.52l-0.43-1.2h-73.21L290.38,112.77z
	 M134.73,182.61l1.19,0.43c6.8,2.42,12.1,7.71,14.53,14.51l0.43,1.19h73.21l-2.46-2.95c-20.03-24.06-20.03-58.98,0-83.03l2.46-2.95
	h-20.92l-0.53,0.48c-10.89,10.7-25.26,16.58-40.5,16.58h-27.4V182.61z"/>
<path class="st0" d="M210.91,492.96c-16.51-0.16-33.02-4.13-47.8-11.5l-99.5-49.74c-11.84-5.88-19.18-17.74-19.14-30.96v-1.86
	c0-11.85,5.95-22.75,15.92-29.15c5.58-3.59,12.05-5.49,18.71-5.49c5,0,9.85,1.06,14.42,3.14l81.1,37.14l-1.01-3.71
	c-2.62-9.67-0.56-20.18,5.52-28.12c6.07-7.94,15.68-12.69,25.69-12.69l64.01-0.15l0.41-0.23c18.99-10.44,40.48-15.95,62.14-15.95
	c21.78,0,43.36,5.57,62.41,16.11l0.41,0.22h109.3c3.71,0,6.73,3.02,6.73,6.73v119.47c0,3.71-3.02,6.73-6.73,6.73H210.91V492.96z
	 M399.27,479.5h97.47v-106h-97.47V479.5z M79.07,377.71c-4.06,0-8.01,1.16-11.43,3.36c-6.09,3.91-9.72,10.58-9.71,17.83v1.85
	c-0.03,7.95,4.56,15.38,11.7,18.93l99.5,49.75c13.24,6.58,28.03,10.07,42.78,10.08h173.9V370.79l-0.97-0.5
	c-16.45-8.58-34.94-13.11-53.48-13.11c-19.43,0-38.7,4.95-55.73,14.31l-2.18,1.2c-0.97,0.53-2.09,0.81-3.21,0.81H204.8
	c-10.4,0-18.87,8.46-18.87,18.87s8.46,18.87,18.87,18.87h68.27c3.71,0,6.73,3.02,6.73,6.73s-3.02,6.73-6.73,6.73h-85.33
	c-0.97,0-1.92-0.21-2.82-0.61L87.9,379.64C85.13,378.36,82.15,377.71,79.07,377.71z"/>
<rect x="419.93" y="445.38" class="st0" width="13.46" height="13.46"/>
</svg>
