<?xml version="1.0" encoding="utf-8"?>
<!-- Generator: Adobe Illustrator 22.0.1, SVG Export Plug-In . SVG Version: 6.00 Build 0)  -->
<svg version="1.1" id="Layer_1" xmlns="http://www.w3.org/2000/svg" xmlns:xlink="http://www.w3.org/1999/xlink" x="0px" y="0px"
	 viewBox="0 0 512 512" style="enable-background:new 0 0 512 512;" xml:space="preserve">
<style type="text/css">
	.st0{fill:#076AF2;}
</style>
<path class="st0" d="M305,426.67H59.73c-23.55-0.03-42.64-19.12-42.67-42.67V17.07h307.2v279.47c0,4.71,3.82,8.53,8.54,8.53
	s8.53-3.82,8.53-8.53V68.27h25.6v211.2c0,4.71,3.82,8.54,8.54,8.54c4.71,0,8.53-3.82,8.53-8.54V68.27h25.6v211.2
	c0,4.71,3.82,8.54,8.53,8.54c4.71,0,8.54-3.82,8.54-8.54V59.73c0-4.71-3.82-8.54-8.54-8.54h-76.8V8.54c0-4.71-3.82-8.54-8.53-8.54
	H8.54C3.82,0,0,3.82,0,8.54V384c0.04,32.97,26.76,59.7,59.73,59.73H305c4.71,0,8.54-3.82,8.54-8.54
	C313.54,430.49,309.72,426.67,305,426.67z"/>
<path class="st0" d="M503.47,358.4h-14.45c-1.19-3.39-2.57-6.72-4.11-9.96l10.24-10.24c3.33-3.33,3.33-8.73,0-12.07l-36.21-36.21
	c-3.33-3.33-8.73-3.33-12.07,0l-10.24,10.24c-3.25-1.55-6.57-2.92-9.96-4.11V281.6c0-4.71-3.82-8.54-8.54-8.54h-51.2
	c-4.71,0-8.54,3.82-8.54,8.54v14.45c-3.39,1.2-6.72,2.57-9.96,4.11l-10.24-10.24c-3.33-3.33-8.73-3.33-12.07,0l-36.21,36.21
	c-3.33,3.33-3.33,8.73,0,12.07l10.24,10.24c-1.55,3.25-2.92,6.57-4.11,9.96H281.6c-4.71,0-8.53,3.82-8.53,8.54v51.2
	c0,4.71,3.82,8.54,8.53,8.54h14.45c1.19,3.39,2.57,6.72,4.11,9.96l-10.24,10.24c-3.33,3.33-3.33,8.73,0,12.07l36.21,36.21
	c3.33,3.33,8.73,3.33,12.07,0l10.24-10.24c3.25,1.55,6.57,2.92,9.96,4.11v14.45c0,4.71,3.82,8.53,8.54,8.53h51.2
	c4.71,0,8.54-3.82,8.54-8.53v-14.45c3.39-1.19,6.72-2.57,9.96-4.11l10.24,10.24c3.33,3.33,8.73,3.33,12.07,0l36.21-36.21
	c3.33-3.33,3.33-8.73,0-12.07l-10.24-10.24c1.55-3.25,2.92-6.57,4.11-9.96h14.45c4.71,0,8.53-3.82,8.53-8.54v-51.2
	C512,362.22,508.18,358.4,503.47,358.4z M494.93,409.6h-12.16c-3.82,0-7.17,2.53-8.21,6.2c-1.8,6.37-4.33,12.52-7.55,18.3
	c-1.86,3.33-1.28,7.49,1.42,10.19l8.54,8.53l-24.1,24.19l-8.54-8.54c-2.7-2.7-6.86-3.27-10.19-1.42c-5.79,3.22-11.93,5.75-18.3,7.54
	c-3.67,1.04-6.2,4.39-6.2,8.21v12.12h-34.18v-12.16c0-3.82-2.54-7.17-6.2-8.21c-6.38-1.8-12.52-4.33-18.3-7.55
	c-3.33-1.86-7.49-1.28-10.19,1.42l-8.53,8.54l-24.18-24.1l8.53-8.54c2.7-2.7,3.28-6.86,1.42-10.19c-3.22-5.79-5.75-11.93-7.54-18.3
	c-1.02-3.67-4.36-6.22-8.17-6.25h-12.16v-34.13h12.16c3.82,0,7.17-2.54,8.21-6.2c1.79-6.38,4.32-12.52,7.54-18.3
	c1.86-3.33,1.28-7.49-1.42-10.19l-8.53-8.53l24.1-24.18l8.53,8.53c2.7,2.7,6.86,3.28,10.19,1.42c5.79-3.22,11.93-5.75,18.3-7.54
	c3.67-1.02,6.22-4.36,6.25-8.17v-12.16h34.13v12.16c0,3.82,2.53,7.17,6.2,8.21c6.38,1.79,12.52,4.32,18.3,7.54
	c3.33,1.86,7.49,1.28,10.19-1.42l8.54-8.53l24.18,24.1l-8.54,8.53c-2.7,2.7-3.27,6.86-1.42,10.19c3.22,5.79,5.75,11.93,7.55,18.3
	c1.04,3.67,4.39,6.2,8.21,6.2h12.12V409.6z"/>
<path class="st0" d="M392.54,332.8c-32.99,0-59.73,26.74-59.73,59.73c0,32.99,26.74,59.73,59.73,59.73
	c32.99,0,59.73-26.74,59.73-59.73C452.23,359.56,425.51,332.84,392.54,332.8z M392.54,435.2c-23.57,0-42.67-19.1-42.67-42.66
	c0-23.57,19.1-42.67,42.67-42.67c23.56,0,42.66,19.1,42.66,42.67C435.17,416.09,416.09,435.17,392.54,435.2z"/>
<path class="st0" d="M281.6,51.2H179.2c-4.71,0-8.53,3.82-8.53,8.54c0,4.71,3.82,8.53,8.53,8.53h102.4c4.71,0,8.53-3.82,8.53-8.53
	C290.13,55.02,286.31,51.2,281.6,51.2z"/>
<path class="st0" d="M281.6,102.4H179.2c-4.71,0-8.53,3.82-8.53,8.54c0,4.71,3.82,8.53,8.53,8.53h102.4c4.71,0,8.53-3.82,8.53-8.53
	C290.13,106.22,286.31,102.4,281.6,102.4z"/>
<path class="st0" d="M281.6,170.67H179.2c-4.71,0-8.53,3.82-8.53,8.53c0,4.71,3.82,8.54,8.53,8.54h102.4c4.71,0,8.53-3.82,8.53-8.54
	C290.13,174.49,286.31,170.67,281.6,170.67z"/>
<path class="st0" d="M281.6,221.87H179.2c-4.71,0-8.53,3.82-8.53,8.53c0,4.71,3.82,8.54,8.53,8.54h102.4c4.71,0,8.53-3.82,8.53-8.54
	C290.13,225.69,286.31,221.87,281.6,221.87z"/>
<path class="st0" d="M264.54,290.13H179.2c-4.71,0-8.53,3.82-8.53,8.54c0,4.71,3.82,8.53,8.53,8.53h85.34
	c4.71,0,8.53-3.82,8.53-8.53C273.07,293.95,269.25,290.13,264.54,290.13z"/>
<path class="st0" d="M247.47,358.4c4.71,0,8.53-3.82,8.53-8.53c0-4.71-3.82-8.54-8.53-8.54H179.2c-4.71,0-8.53,3.82-8.53,8.54
	c0,4.71,3.82,8.53,8.53,8.53H247.47z"/>
<path class="st0" d="M151.1,53.7c-3.33-3.33-8.73-3.33-12.07,0l-3.1,3.1c-1.21-3.35-4.38-5.58-7.94-5.6H59.73
	c-4.71,0-8.54,3.82-8.54,8.54V128c0,4.71,3.82,8.53,8.54,8.53H128c4.71,0,8.54-3.82,8.54-8.53V80.33l14.57-14.57
	C154.43,62.43,154.43,57.03,151.1,53.7z M119.47,119.46h-51.2v-51.2h51.2v5L102.4,90.33L91.37,79.3c-3.39-3.27-8.79-3.18-12.07,0.21
	c-3.2,3.31-3.2,8.55,0,11.86l17.07,17.07c3.33,3.33,8.73,3.33,12.07,0l11.04-11.04V119.46z"/>
<path class="st0" d="M151.1,173.17c-3.33-3.33-8.73-3.33-12.07,0l-3.1,3.1c-1.21-3.35-4.38-5.58-7.94-5.6H59.73
	c-4.71,0-8.54,3.82-8.54,8.53v68.27c0,4.71,3.82,8.53,8.54,8.53H128c4.71,0,8.54-3.82,8.54-8.53V199.8l14.57-14.57
	C154.43,181.9,154.43,176.5,151.1,173.17z M119.47,238.93h-51.2v-51.2h51.2v5L102.4,209.8l-11.03-11.04
	c-3.39-3.27-8.79-3.18-12.07,0.21c-3.2,3.31-3.2,8.55,0,11.86l17.07,17.07c3.33,3.33,8.73,3.33,12.07,0l11.04-11.03V238.93z"/>
<path class="st0" d="M139.04,292.63l-3.1,3.1c-1.21-3.35-4.38-5.58-7.94-5.6H59.73c-4.71,0-8.54,3.82-8.54,8.54v68.27
	c0,4.71,3.82,8.54,8.54,8.54H128c4.71,0,8.54-3.82,8.54-8.54v-47.67l14.57-14.57c3.27-3.39,3.18-8.79-0.21-12.07
	C147.58,289.44,142.34,289.44,139.04,292.63z M119.47,358.4h-51.2v-51.2h51.2v5l-17.07,17.07l-11.03-11.03
	c-3.39-3.27-8.79-3.18-12.07,0.21c-3.2,3.31-3.2,8.55,0,11.86l17.07,17.07c3.33,3.33,8.73,3.33,12.07,0l11.04-11.04V358.4z"/>
</svg>
