<?xml version="1.0" encoding="utf-8"?>
<!-- Generator: Adobe Illustrator 22.0.1, SVG Export Plug-In . SVG Version: 6.00 Build 0)  -->
<svg version="1.1" id="Layer_1" xmlns="http://www.w3.org/2000/svg" xmlns:xlink="http://www.w3.org/1999/xlink" x="0px" y="0px"
	 viewBox="0 0 512 512" style="enable-background:new 0 0 512 512;" xml:space="preserve">
<style type="text/css">
	.st0{fill:#076AF2;}
</style>
<path class="st0" d="M494.88,364.9v-23.55h8.53c2.35,0.02,4.61-0.94,6.23-2.65c1.45-1.62,2.27-3.71,2.3-5.89l-15.27-290.1
	c-1.45-23.48-20.93-41.78-44.45-41.78s-43,18.3-44.45,41.78l-15.27,290.1c-0.07,2.32,0.75,4.58,2.3,6.32
	c1.69,1.55,3.94,2.35,6.23,2.22h8.53v23.55l-16.13,32.34c-1.22,2.41-1.22,5.26,0,7.68l51.19,102.39c0.42,0.94,1.03,1.78,1.79,2.47
	c1,0.92,2.2,1.6,3.5,1.96h4.69c1.31-0.37,2.51-1.04,3.5-1.96c0.77-0.69,1.37-1.53,1.79-2.47l51.19-102.39
	c1.22-2.42,1.22-5.27,0-7.68L494.88,364.9z M409.98,324.29l3.59-68.26h77.3l4.01,68.26H409.98z M424.83,43.15
	c0-15.13,12.26-27.39,27.39-27.39s27.39,12.27,27.39,27.39l10.32,196.24H414.5L424.83,43.15z M477.81,341.35v17.06h-51.19v-17.06
	H477.81z M460.75,467.29v-57.68h8.53c4.71,0,8.53-3.82,8.53-8.53s-3.82-8.53-8.53-8.53h-34.13c-4.71,0-8.53,3.82-8.53,8.53
	s3.82,8.53,8.53,8.53h8.53v57.68l-33.1-66.21l12.8-25.6h57.68l12.8,25.6L460.75,467.29z"/>
<path class="st0" d="M290.1,110.98c4.71,0,8.53-3.82,8.53-8.53s-3.82-8.53-8.53-8.53H68.26c-4.71,0-8.53,3.82-8.53,8.53v34.13
	c0,4.71,3.82,8.53,8.53,8.53H290.1c4.71,0,8.53-3.82,8.53-8.53c0-4.71-3.82-8.53-8.53-8.53H76.79v-17.06H290.1z"/>
<path class="st0" d="M298.63,187.77c0-4.71-3.82-8.53-8.53-8.53H102.39c-4.71,0-8.53,3.82-8.53,8.53c0,4.71,3.82,8.53,8.53,8.53
	H290.1C294.81,196.3,298.63,192.48,298.63,187.77z"/>
<path class="st0" d="M51.19,230.43c0,4.71,3.82,8.53,8.53,8.53h136.52c4.71,0,8.53-3.82,8.53-8.53c0-4.71-3.82-8.53-8.53-8.53H59.73
	C55.01,221.9,51.19,225.72,51.19,230.43z"/>
<path class="st0" d="M247.44,221.9c-4.71,0-8.53,3.82-8.53,8.53c0,4.71,3.82,8.53,8.53,8.53h34.13c4.71,0,8.53-3.82,8.53-8.53
	c0-4.71-3.82-8.53-8.53-8.53H247.44z"/>
<path class="st0" d="M170.65,273.09c0-4.71-3.82-8.53-8.53-8.53H59.73c-4.71,0-8.53,3.82-8.53,8.53s3.82,8.53,8.53,8.53h102.39
	C166.83,281.63,170.65,277.81,170.65,273.09z"/>
<path class="st0" d="M162.11,315.76c0-4.71-3.82-8.53-8.53-8.53H59.73c-4.71,0-8.53,3.82-8.53,8.53s3.82,8.53,8.53,8.53h93.86
	C158.29,324.29,162.11,320.47,162.11,315.76z"/>
<path class="st0" d="M59.73,349.88c-4.71,0-8.53,3.82-8.53,8.53s3.82,8.53,8.53,8.53h59.73c4.71,0,8.53-3.82,8.53-8.53
	s-3.82-8.53-8.53-8.53H59.73z"/>
<path class="st0" d="M332.76,0.06H25.6C11.46,0.06,0,11.52,0,25.66v392.49c0,14.14,11.46,25.6,25.6,25.6h176.05
	c4.71,0,8.53-3.82,8.53-8.53s-3.82-8.53-8.53-8.53H25.6c-4.71,0-8.53-3.82-8.53-8.53V76.85h324.23v341.29
	c0,4.71-3.82,8.53-8.53,8.53h-56.6c-4.71,0-8.53,3.82-8.53,8.53s3.82,8.53,8.53,8.53h56.6c14.14,0,25.6-11.46,25.6-25.6V25.66
	C358.36,11.52,346.9,0.06,332.76,0.06z M17.06,59.79V25.66c0-4.71,3.82-8.53,8.53-8.53h307.16c4.71,0,8.53,3.82,8.53,8.53v34.13
	H17.06z"/>
<path class="st0" d="M238.91,315.76c-14.14,0-25.6,11.46-25.6,25.6c0,14.14,11.46,25.6,25.6,25.6c14.14,0,25.6-11.46,25.6-25.6
	C264.5,327.22,253.04,315.76,238.91,315.76z M238.91,349.88c-4.71,0-8.53-3.82-8.53-8.53c0-4.71,3.82-8.53,8.53-8.53
	c4.71,0,8.53,3.82,8.53,8.53C247.44,346.06,243.62,349.88,238.91,349.88z"/>
<path class="st0" d="M307.16,341.35c-0.01-9.48-5.26-18.19-13.65-22.61c2.79-9.07,0.34-18.93-6.36-25.63
	c-6.71-6.7-16.57-9.15-25.63-6.36c-4.44-8.37-13.14-13.6-22.61-13.6c-9.47,0-18.17,5.23-22.61,13.6
	c-9.07-2.79-18.93-0.34-25.63,6.36c-6.7,6.71-9.15,16.57-6.36,25.63c-8.37,4.44-13.6,13.14-13.6,22.61c0,9.47,5.23,18.17,13.6,22.61
	c-2.79,9.04-0.36,18.89,6.31,25.6c1.67,1.66,3.56,3.07,5.63,4.18v109.72c0.02,3.45,2.1,6.54,5.29,7.85c3.17,1.34,6.85,0.63,9.3-1.79
	l28.07-28.16l28.07,28.16c1.61,1.6,3.79,2.49,6.06,2.47c1.12,0.03,2.23-0.2,3.24-0.68c3.19-1.31,5.27-4.4,5.29-7.85V393.83
	c2.07-1.11,3.97-2.52,5.63-4.18c6.67-6.71,9.1-16.55,6.31-25.6C301.93,359.61,307.19,350.87,307.16,341.35z M244.96,463.28
	c-1.6-1.62-3.78-2.52-6.06-2.52s-4.46,0.91-6.06,2.52l-19.54,19.62v-86.17l2.99-0.77c4.44,8.37,13.14,13.6,22.61,13.6
	c9.47,0,18.17-5.23,22.61-13.6l2.99,0.77v86.17L244.96,463.28z M281.57,349.88h-1.45c-3.47-0.02-6.62,2.07-7.94,5.29
	c-1.31,3.2-0.57,6.87,1.88,9.3l1.02,1.02c3.31,3.33,3.31,8.7,0,12.03c-0.94,0.99-2.12,1.72-3.42,2.13h-1.28
	c-2.69,0.42-5.41-0.47-7.34-2.39l-1.02-1.02c-2.44-2.46-6.13-3.2-9.33-1.87c-3.2,1.33-5.28,4.47-5.26,7.93v1.7
	c0,4.71-3.82,8.53-8.53,8.53c-4.71,0-8.53-3.82-8.53-8.53v-1.45c0.02-3.47-2.07-6.62-5.29-7.94c-1.03-0.41-2.13-0.61-3.24-0.6
	c-2.27-0.01-4.45,0.88-6.06,2.47l-1.02,1.02c-1.92,1.92-4.65,2.81-7.34,2.39h-1.28c-1.3-0.41-2.47-1.14-3.42-2.13
	c-3.31-3.33-3.31-8.7,0-12.03l1.11-1.02c2.45-2.44,3.19-6.11,1.87-9.3c-1.32-3.21-4.46-5.31-7.93-5.29h-1.54
	c-4.71,0-8.53-3.82-8.53-8.53c0-4.72,3.82-8.53,8.53-8.53h1.45c3.47,0.02,6.62-2.08,7.94-5.29c1.31-3.2,0.57-6.87-1.88-9.3
	l-1.02-1.02c-3.35-3.32-3.36-8.73-0.04-12.07c3.32-3.35,8.73-3.37,12.07-0.04l1.02,1.11c2.43,2.45,6.11,3.19,9.3,1.87
	c3.22-1.32,5.31-4.46,5.29-7.93v-1.71c0-4.71,3.82-8.53,8.53-8.53c4.71,0,8.53,3.82,8.53,8.53v1.45c-0.02,3.48,2.07,6.62,5.29,7.94
	c3.19,1.31,6.87,0.57,9.3-1.88l1.02-1.02c3.32-3.35,8.73-3.37,12.07-0.05c3.35,3.32,3.36,8.73,0.04,12.07l-1.11,1.02
	c-2.45,2.43-3.19,6.11-1.88,9.3c1.32,3.22,4.46,5.31,7.94,5.29h1.45c4.71,0,8.53,3.82,8.53,8.53
	C290.1,346.06,286.28,349.88,281.57,349.88z"/>
</svg>
