<?xml version="1.0" encoding="utf-8"?>
<!-- Generator: Adobe Illustrator 22.0.1, SVG Export Plug-In . SVG Version: 6.00 Build 0)  -->
<svg version="1.1" id="Layer_1" xmlns="http://www.w3.org/2000/svg" xmlns:xlink="http://www.w3.org/1999/xlink" x="0px" y="0px"
	 viewBox="0 0 484 484" style="enable-background:new 0 0 484 484;" xml:space="preserve">
<path d="M432.24,483c-0.8,0-1.59-0.14-2.34-0.43l-45.07-16.4c-1.76-0.64-3.16-1.92-3.95-3.61c-0.79-1.69-0.88-3.59-0.24-5.35
	l3.08-8.45l-6.15-2.23l-46.16,15.58c-0.73,0.25-1.48,0.37-2.24,0.37c-0.83,0-1.63-0.14-2.39-0.43l-164.1-59.73
	c-14.19-4.86-23.08-19.16-21.16-34.02c1.54-10.31,8.11-19.11,17.57-23.52c4.07-1.92,8.59-2.93,13.08-2.93
	c3.62,0,7.18,0.63,10.58,1.88l50.65,18.47l0.4-0.78c4.41-8.56,12.69-14.68,22.16-16.36l108.59-19.18c0.41-0.08,0.82-0.11,1.23-0.11
	c0.81,0,1.6,0.14,2.35,0.42l53.14,19.38l3.08-8.44c1-2.76,3.64-4.62,6.58-4.62c0.81,0,1.61,0.14,2.38,0.42l45.05,16.4
	c3.6,1.31,5.49,5.3,4.2,8.91L438.85,478.4c-1,2.75-3.64,4.6-6.56,4.6H432.24z M396.15,455.45l31.92,11.62l38.95-107.01l-31.92-11.61
	L396.15,455.45z M172.16,355.88c-3.08,0-6.1,0.84-8.73,2.42c-4.41,2.65-7.36,7.1-8.08,12.19c-0.81,8.4,4.19,16.08,12.15,18.73
	l161.76,58.88l46.16-15.58c0.7-0.23,1.43-0.35,2.17-0.35c0.84,0,1.66,0.15,2.45,0.44l8.46,3.07l28.01-76.99l-51.38-18.69
	L258.4,358.83c-5.95,1.06-10.94,5.25-13.02,10.93c-0.28,0.67-0.48,1.42-0.6,2.18c-0.03,0.27-0.07,0.5-0.13,0.74
	c-0.39,1.97-0.4,3.95-0.05,5.91c1.51,8.09,8.57,13.96,16.78,13.96c0.96,0,1.93-0.08,2.88-0.24l88.94-15.69l2.43,13.77l-88.98,15.69
	c-1.74,0.3-3.52,0.45-5.28,0.45c-15.03,0-27.89-10.76-30.57-25.57c-0.2-1.36-0.32-2.79-0.34-4.24l-0.01-0.69l-52.49-19.1
	C176.11,356.23,174.15,355.88,172.16,355.88z"/>
<path d="M249.27,318.68c-1.08,0-2.16-0.26-3.13-0.74l-15.98-7.99c-2.36-1.18-3.88-3.65-3.86-6.29v-80.92h-1
	c-12.67,0-22.97-10.31-22.97-22.97v-43.52c0.03-0.52,0.11-1.11,0.23-1.75l0.09-0.49l-0.33-0.37c-6.41-7.12-11.14-15.77-13.66-25.01
	l-0.51-1.85l-1.23,1.47c-11.96,14.35-29.53,22.58-48.21,22.58c0,0,0,0,0,0c-0.43,0-0.86,0-1.29-0.01c-21.89,0-48-11.69-53.83-31.25
	l-0.21-0.71h-2.91v16.98c0,3.85-3.14,6.99-6.99,6.99H9.54c-3.85,0-6.99-3.14-6.99-6.99V7.99C2.55,4.14,5.69,1,9.54,1h63.93
	c3.85,0,6.99,3.14,6.99,6.99v16.98h7.6l54.58-23.41c0.87-0.38,1.79-0.57,2.73-0.57h84.2c14.42,0,28.52,5.86,38.69,16.08l65.03,65.02
	c10.27,9.97,12.27,25.48,4.87,37.72c-5.08,8.38-14.31,13.59-24.11,13.59c-1.56,0-3.13-0.13-4.68-0.39l-0.82-0.14l-0.29,0.78
	c-2.72,7.36-6.78,14.03-12.05,19.83l-0.34,0.37l0.1,0.49c0.13,0.65,0.21,1.31,0.25,1.95l0,43.46c0,12.67-10.31,22.97-22.97,22.97h-1
	v80.91c0.01,2.69-1.47,5.1-3.87,6.3l-15.98,7.99C251.43,318.42,250.35,318.68,249.27,318.68z M240.28,299.33l8.99,4.5l8.99-4.5
	v-76.59h-17.98V299.33z M216.31,199.77c0,4.96,4.03,8.99,8.99,8.99h47.94c4.96,0,8.99-4.03,8.99-8.99v-44.04l-0.43-0.3
	c-9.63-6.61-20.83-10.96-32.39-12.58l-0.13-0.02l-0.13,0.02c-9.03,1.05-17.91,4.1-25.68,8.81l-1.4,0.85l1.4,0.86
	c4.05,2.49,8.44,4.36,13.06,5.57l0.63,0.17l0.41-0.52c2.88-3.66,7.2-5.76,11.86-5.76c2.04,0,4.02,0.41,5.91,1.21
	c6.26,2.67,9.97,9.23,9.03,15.96c-0.94,6.74-6.31,12.03-13.05,12.88c-0.63,0.08-1.27,0.12-1.9,0.12c-6.13,0-11.61-3.67-13.94-9.35
	l-0.2-0.48l-0.5-0.12c-5.96-1.4-11.66-3.68-16.96-6.76l-1.5-0.88V199.77z M249.27,128.86c13.25,1.43,26.17,6,37.37,13.2l0.77,0.49
	l0.56-0.72c3.21-4.12,5.69-8.71,7.38-13.66l0.24-0.7l-0.6-0.43c-0.95-0.69-1.87-1.44-2.73-2.24l-23.31-23.31l-0.63,1.21
	c-5.22,9.98-15.46,16.17-26.72,16.17l-40.74,0l0.19,1.16c1.3,7.93,4.62,15.46,9.58,21.78l0.56,0.72l0.77-0.49
	C223.15,134.84,236.05,130.28,249.27,128.86z M80.46,104.88h8.99c3.85,0,6.99,3.14,6.99,6.99c0,12.6,20.29,24.97,40.95,24.97
	s40.95-12.37,40.95-24.97c0-3.85,3.14-6.99,6.99-6.99h55.94c9.36,0,16.98-7.62,16.98-16.98s-7.62-16.98-16.98-16.98h-86.9V56.94
	h64.47l0.23-0.13c9.21-5.13,19.66-7.85,30.2-7.86c34.66,0.04,62.89,28.27,62.92,62.93c-0.01,2.15-0.14,4.32-0.37,6.44l-0.12,1.11
	l1.67,0c5.31,0,10.17-2.68,13.01-7.17c3.86-6.71,2.61-15.04-3.01-20.29l-64.99-64.99c-7.58-7.62-18.1-11.99-28.85-11.99l-82.74,0
	L92.21,38.39c-0.87,0.38-1.79,0.57-2.73,0.57h-9.02V104.88z M16.53,128.85h49.95V14.98H16.53V128.85z M264.2,67.3
	c4.29,4.77,6.94,10.66,7.67,17.03l0.04,0.35l26.33,26.35l-0.2-2.68c-1.44-19.49-14.29-36.23-32.76-42.65L264.2,67.3z"/>
</svg>
