<?xml version="1.0" encoding="utf-8"?>
<!-- Generator: Adobe Illustrator 22.0.1, SVG Export Plug-In . SVG Version: 6.00 Build 0)  -->
<svg version="1.1" id="Capa_1" xmlns="http://www.w3.org/2000/svg" xmlns:xlink="http://www.w3.org/1999/xlink" x="0px" y="0px"
	 viewBox="0 0 512 512" style="enable-background:new 0 0 512 512;" xml:space="preserve">
<style type="text/css">
	.st0{fill:#076AF2;}
</style>
<rect x="173.03" y="371.54" class="st0" width="166.51" height="13.85"/>
<path class="st0" d="M445.79,385.5v-14.04h43.14c4.98,0,9.03-4.05,9.03-9.03v-9.12h-9.03c-12.66,0-22.97-10.3-22.97-22.97v-8.02
	c0-12.66,10.3-22.97,22.97-22.97h9.03V281.2H351.55v56.16h-14.04v-55.6h-323v80.67c0,5.03,4.09,9.12,9.12,9.12h43.14v13.85H23.63
	c-12.66,0-22.97-10.3-22.97-22.97v-85.17l-0.08-0.19C0.2,276.15,0,275.18,0,274.19V81.65C0,64.2,14.2,50,31.66,50h288.81
	c11.28,0,21.8,6.2,27.45,16.18l0.29,0.51h73.01c9.9,0,18.65,6.31,21.79,15.7l10.8,32.4l0.68,0.04c9.56,0.5,17.68,6.65,20.7,15.67
	l12.39,37.17l0.02,0.1c0.01,0.1,0.03,0.19,0.06,0.29c0.04,0.14,0.08,0.23,0.13,0.32l24.05,104.22c0,0.02-0.01,0.08-0.02,0.13
	c-0.01,0.15-0.03,0.34,0,0.57c0.02,0.2,0.07,0.39,0.13,0.58c0.03,0.12,0.07,0.24,0.07,0.3v88.25c0,12.72-10.35,23.06-23.06,23.06
	h-43.17L445.79,385.5L445.79,385.5z M488.94,313.2c-5.03,0-9.12,4.09-9.12,9.12v8.02c0,5.03,4.09,9.12,9.12,9.12h1v-0.01h8.02V313.2
	H488.94z M352.11,195.06h24.51c12.66,0,22.97,10.3,22.97,22.97v49.14h96.57l-20.83-90.26H352.11V195.06z M352.11,267.17h33.63
	v-49.14c0-5.03-4.09-9.12-9.12-9.12h-24.51V267.17z M31.66,65.16c-9.09,0-16.48,7.4-16.48,16.49v184.96h321.78V81.65
	c0-9.09-7.4-16.49-16.49-16.49H31.66z M352.11,162.88h119.06l-9.3-27.92c-1.23-3.69-4.68-6.17-8.57-6.17H352.11V162.88z
	 M352.1,81.61l0.01,0.11v33.02h87.07l-9.31-27.96c-1.25-3.73-4.72-6.23-8.65-6.23h-5.49v8.12h-14.04v-8.12h-18.05v8.12H369.6v-8.12
	h-17.5V81.61z"/>
<path class="st0" d="M119.9,425.61c-12.64,0-22.99-10.28-23.06-22.92c-0.08-12.71,10.2-23.13,22.92-23.21h0.15
	c12.64,0,22.99,10.28,23.06,22.92c0.08,12.71-10.2,23.12-22.91,23.21H119.9z M119.85,393.52c-2.41,0.01-4.67,0.97-6.37,2.69
	c-1.69,1.72-2.62,3.99-2.61,6.4c0.03,4.94,4.08,8.96,9.03,8.96c2.46-0.01,4.72-0.97,6.42-2.69c1.69-1.72,2.62-3.99,2.61-6.4
	c-0.03-4.94-4.08-8.96-9.03-8.96l0,0H119.85z"/>
<path class="st0" d="M392.65,465.72c-0.36,0-0.73-0.03-1.09-0.05c-0.27-0.02-0.54-0.04-0.81-0.05H122.02
	c-0.29,0.01-0.53,0.03-0.77,0.05c-0.31,0.02-0.62,0.05-0.94,0.05h-0.41c-0.33,0-0.66-0.02-0.99-0.04c-0.29-0.02-0.57-0.04-0.86-0.05
	H0.57v-13.85h79.81l-2.01-1.76c-13.64-11.94-21.53-29.1-21.64-47.08c-0.11-16.87,6.36-32.77,18.22-44.79
	c11.85-12,27.68-18.68,44.55-18.79h0.4c34.61,0,62.96,28.16,63.18,62.78c0.1,16.86-6.37,32.77-18.23,44.78
	c-0.97,0.99-2.03,1.92-3.06,2.82l-2.29,2.02h193.57l-1.99-1.76l-0.79-0.69c-0.68-0.59-1.38-1.2-2.02-1.83
	c-12.01-11.85-18.68-27.67-18.79-44.56c-0.1-16.87,6.37-32.78,18.23-44.78c11.85-12,27.67-18.68,44.56-18.79h0.41
	c16.71,0,32.47,6.47,44.37,18.22c12,11.85,18.68,27.67,18.79,44.56c0.1,16.87-6.37,32.78-18.23,44.78
	c-1.02,1.04-2.14,2.01-3.21,2.95l-2.15,1.88H512v13.85H394.78c-0.28,0.01-0.52,0.03-0.76,0.05c-0.31,0.02-0.63,0.05-0.95,0.05h-0.42
	L392.65,465.72L392.65,465.72z M392.36,353.41c-13.13,0.08-25.44,5.27-34.66,14.61s-14.25,21.71-14.17,34.84s5.27,25.44,14.61,34.66
	c9.25,9.14,21.51,14.17,34.52,14.17h0.31c13.13-0.08,25.44-5.27,34.67-14.62c9.22-9.34,14.25-21.71,14.17-34.84
	s-5.27-25.43-14.61-34.65c-9.25-9.14-21.51-14.17-34.52-14.17H392.36z M119.58,353.41c-13.13,0.08-25.43,5.27-34.65,14.61
	s-14.25,21.71-14.17,34.84c0.17,26.92,22.22,48.83,49.14,48.83h0.31c13.13-0.08,25.44-5.27,34.66-14.61s14.25-21.71,14.17-34.84
	c-0.17-26.92-22.22-48.83-49.14-48.83L119.58,353.41L119.58,353.41z"/>
<path class="st0" d="M392.67,425.61c-12.64,0-22.99-10.28-23.06-22.92c-0.08-12.71,10.2-23.13,22.92-23.21
	c12.93,0.22,23.13,10.29,23.21,22.92c0.08,12.71-10.2,23.12-22.91,23.21H392.67z M392.61,393.52c-2.4,0.01-4.66,0.96-6.36,2.68
	c-1.7,1.72-2.62,4-2.61,6.41c0.03,4.94,4.08,8.96,9.03,8.96c2.47-0.01,4.72-0.97,6.42-2.68c1.7-1.72,2.62-4,2.61-6.41
	c-0.03-4.94-4.08-8.96-9.03-8.96l0,0H392.61z"/>
<path class="st0" d="M180.65,252c-47.29,0-85.77-38.47-85.77-85.77s38.47-85.77,85.77-85.77s85.77,38.47,85.77,85.77
	S227.94,252,180.65,252z M180.65,222.24c1.87,0,3.39,1.52,3.39,3.39v10.38l1.27-0.08c9.99-0.67,19.5-3.39,28.29-8.12l1.08-0.58
	l-4.37-7.52c-0.17-0.29-0.21-0.62-0.13-0.94c0.08-0.32,0.29-0.58,0.57-0.75c0.19-0.11,0.39-0.17,0.62-0.17
	c0.44,0,0.85,0.24,1.07,0.62l4.37,7.51l1.05-0.65c8.2-5.18,15.39-12.16,20.79-20.21l0.71-1.06l-8.97-5.18
	c-0.79-0.45-1.35-1.18-1.58-2.06c-0.24-0.88-0.12-1.79,0.33-2.57c0.61-1.05,1.73-1.69,2.94-1.69c0.6,0,1.18,0.15,1.69,0.45
	l8.97,5.18l0.56-1.14c4.42-8.95,6.82-18.56,7.13-28.55l0.04-1.24l-8.71,0.02c-0.21,0-0.43-0.06-0.62-0.17
	c-0.38-0.21-0.62-0.63-0.62-1.07c0-0.33,0.13-0.64,0.36-0.87c0.23-0.24,0.54-0.36,0.87-0.36l8.7-0.02l-0.05-1.23
	c-0.37-9.86-2.77-19.32-7.12-28.13l-0.56-1.14l-8.97,5.18c-0.51,0.3-1.1,0.45-1.69,0.45c-1.2,0-2.33-0.65-2.94-1.69
	c-0.45-0.79-0.57-1.69-0.33-2.57c0.24-0.88,0.8-1.61,1.58-2.06l8.97-5.18l-0.71-1.06c-5.49-8.17-12.81-15.24-21.16-20.44l-1.05-0.65
	l-4.32,7.53c-0.21,0.38-0.63,0.62-1.07,0.62c-0.21,0-0.42-0.05-0.61-0.17c-0.6-0.33-0.8-1.1-0.45-1.68l4.32-7.55l-1.08-0.57
	c-8.69-4.61-18.08-7.26-27.91-7.92l-1.27-0.08v10.38c0,1.87-1.52,3.39-3.39,3.39s-3.39-1.52-3.39-3.39V96.47l-1.27,0.08
	c-9.97,0.67-19.5,3.39-28.29,8.12l-1.08,0.58l4.37,7.52c0.17,0.29,0.21,0.62,0.13,0.93c-0.08,0.32-0.29,0.58-0.57,0.75
	c-0.18,0.11-0.39,0.17-0.62,0.17s-0.43-0.06-0.62-0.17c-0.19-0.11-0.33-0.25-0.45-0.45l-4.37-7.51l-1.05,0.65
	c-8.2,5.18-15.39,12.16-20.79,20.21l-0.71,1.06l8.97,5.18c0.79,0.45,1.35,1.18,1.58,2.06c0.24,0.87,0.12,1.79-0.33,2.57
	c-0.61,1.05-1.73,1.69-2.94,1.69c-0.6,0-1.18-0.15-1.69-0.45l-8.97-5.18l-0.56,1.14c-4.42,8.95-6.82,18.56-7.13,28.55l-0.04,1.23
	l8.71-0.02c0.68,0,1.23,0.55,1.23,1.23c0,0.33-0.13,0.64-0.36,0.87c-0.23,0.24-0.54,0.36-0.87,0.37l-8.71,0.02l0.05,1.23
	c0.37,9.86,2.77,19.32,7.12,28.13l0.56,1.14l8.97-5.18c0.51-0.3,1.1-0.45,1.69-0.45c1.21,0,2.33,0.65,2.94,1.69
	c0.45,0.79,0.57,1.69,0.33,2.57c-0.24,0.87-0.8,1.61-1.58,2.06l-8.97,5.18l0.71,1.06c5.49,8.17,12.81,15.24,21.16,20.44l1.05,0.65
	l4.32-7.53c0.21-0.38,0.63-0.62,1.07-0.62c0.21,0,0.42,0.06,0.61,0.17c0.29,0.17,0.49,0.43,0.57,0.75c0.08,0.32,0.05,0.64-0.12,0.94
	l-4.32,7.55l1.08,0.57c8.69,4.61,18.08,7.26,27.91,7.92l1.27,0.08v-10.38C177.27,223.76,178.78,222.24,180.65,222.24z"/>
<path class="st0" d="M214.48,141.41l-29.35,16.28c-1.33-0.7-2.86-1.11-4.48-1.11c-1.62,0-3.13,0.4-4.48,1.11l-29.35-16.28
	c-2.77-1.54-6.27-0.54-7.82,2.24c-1.54,2.77-0.54,6.27,2.24,7.82l29.95,16.62c0.87,4.43,4.76,7.78,9.45,7.78s8.58-3.34,9.45-7.78
	l29.95-16.62c2.77-1.54,3.77-5.03,2.24-7.82C220.75,140.88,217.25,139.88,214.48,141.41z"/>
</svg>
