<?xml version="1.0" encoding="utf-8"?>
<!-- Generator: Adobe Illustrator 22.0.1, SVG Export Plug-In . SVG Version: 6.00 Build 0)  -->
<svg version="1.1" id="Layer_1" xmlns="http://www.w3.org/2000/svg" xmlns:xlink="http://www.w3.org/1999/xlink" x="0px" y="0px"
	 viewBox="0 0 480 480" style="enable-background:new 0 0 480 480;" xml:space="preserve">
<path d="M472,106H112c-9.6,0.38-18.75,4.15-25.84,10.64L9.6,193.2C3.45,199.39,0,207.76,0,216.48V286c0,17.67,14.33,32,32,32h16.72
	c-3.3,18.86,4.92,37.88,20.92,48.39c16,10.52,36.72,10.52,52.73,0c16-10.52,24.22-29.54,20.92-48.39h177.44
	c-3.3,18.86,4.92,37.88,20.92,48.39c16,10.52,36.72,10.52,52.73,0c16-10.52,24.22-29.54,20.92-48.39H472c4.42,0,8-3.58,8-8V114
	C480,109.58,476.42,106,472,106z M97.49,127.98c4.07-3.48,9.16-5.58,14.5-5.98H128v72H31.47L97.49,127.98z M96,358
	c-17.67,0-32-14.33-32-32s14.33-32,32-32s32,14.33,32,32S113.67,358,96,358z M160,302h-22.5c-8.55-14.85-24.37-24-41.5-24
	s-32.96,9.15-41.5,24H32c-8.84,0-16-7.16-16-16v-69.52c0.01-2.23,0.46-4.43,1.33-6.48H136c4.42,0,8-3.58,8-8v-80h16V302z M368,358
	c-17.67,0-32-14.33-32-32s14.33-32,32-32s32,14.33,32,32S385.67,358,368,358z M464,302h-54.5c-8.56-14.83-24.38-23.98-41.5-24
	c-17.12,0.02-32.94,9.17-41.5,24H176V122h288V302z"/>
<path d="M221.27,170.68h50.08v12.41H236.2v61.53h-14.93V170.68z"/>
<path d="M279.37,170.68h55.28v12.41H294.3v17.15h19.97c5.51,0,10.09,0.67,13.72,2.02c3.63,1.35,6.73,3.83,9.31,7.46
	c2.57,3.63,3.86,7.89,3.86,12.76c0,5.01-1.29,9.3-3.88,12.86c-2.59,3.56-5.54,6-8.85,7.31c-3.31,1.31-8.03,1.97-14.15,1.97h-34.9
	V170.68z M294.3,232.21h14.53c4.64,0,7.9-0.23,9.78-0.68c1.88-0.45,3.52-1.49,4.92-3.1c1.4-1.61,2.09-3.6,2.09-5.95
	c0-3.43-1.22-5.93-3.66-7.49s-6.6-2.35-12.48-2.35H294.3V232.21z"/>
<path d="M350.28,208.1c0-7.53,1.13-13.85,3.38-18.96c1.68-3.77,3.98-7.14,6.88-10.14c2.91-2.99,6.09-5.21,9.56-6.66
	c4.61-1.95,9.92-2.93,15.94-2.93c10.89,0,19.61,3.38,26.15,10.14c6.54,6.76,9.81,16.16,9.81,28.19c0,11.94-3.25,21.28-9.73,28.02
	c-6.49,6.74-15.16,10.11-26.02,10.11c-10.99,0-19.74-3.35-26.23-10.06C353.53,229.11,350.28,219.87,350.28,208.1z M365.67,207.6
	c0,8.37,1.93,14.72,5.8,19.04c3.87,4.32,8.78,6.48,14.73,6.48s10.83-2.14,14.65-6.43c3.82-4.29,5.72-10.72,5.72-19.29
	c0-8.47-1.86-14.79-5.57-18.96c-3.72-4.17-8.65-6.25-14.8-6.25s-11.11,2.11-14.88,6.33C367.55,192.73,365.67,199.09,365.67,207.6z"
	/>
</svg>
