<?xml version="1.0" encoding="utf-8"?>
<!-- Generator: Adobe Illustrator 22.0.1, SVG Export Plug-In . SVG Version: 6.00 Build 0)  -->
<svg version="1.1" id="Layer_1" xmlns="http://www.w3.org/2000/svg" xmlns:xlink="http://www.w3.org/1999/xlink" x="0px" y="0px"
	 viewBox="0 0 480 480" style="enable-background:new 0 0 480 480;" xml:space="preserve">
<path d="M176,256V136.04L112,136c-9.6,0.38-18.75,4.15-25.84,10.64L9.6,223.2C3.45,229.39,0,237.76,0,246.48V296
	c0,17.67,14.33,32,32,32h16.72c-3.3,18.86,4.92,37.88,20.92,48.39c16,10.52,36.72,10.52,52.73,0c16-10.52,24.22-29.54,20.92-48.39
	h177.44c-3.3,18.86,4.92,37.88,20.92,48.39c16,10.52,36.72,10.52,52.73,0c16-10.52,24.22-29.54,20.92-48.39H472c4.42,0,8-3.58,8-8
	v-63.96L176,256z M97.5,157.98c4.07-3.48,9.16-5.58,14.5-5.98h16v72H31.47L97.5,157.98z M96,368c-17.67,0-32-14.33-32-32
	s14.33-32,32-32s32,14.33,32,32S113.67,368,96,368z M160,312h-22.5c-8.55-14.85-24.37-24-41.5-24s-32.96,9.15-41.5,24H32
	c-8.84,0-16-7.16-16-16v-49.52c0.01-2.23,0.46-4.43,1.33-6.48H136c4.42,0,8-3.58,8-8v-80h16V312z M368,368c-17.67,0-32-14.33-32-32
	s14.33-32,32-32s32,14.33,32,32S385.67,368,368,368z M464,312h-54.5c-8.56-14.83-24.38-23.98-41.5-24
	c-17.13,0.02-32.94,9.17-41.5,24H176v-40h288V312z"/>
</svg>
