<?xml version="1.0" encoding="utf-8"?>
<!-- Generator: Adobe Illustrator 22.0.1, SVG Export Plug-In . SVG Version: 6.00 Build 0)  -->
<svg version="1.1" id="Layer_1" xmlns="http://www.w3.org/2000/svg" xmlns:xlink="http://www.w3.org/1999/xlink" x="0px" y="0px"
	 viewBox="0 0 480 480" style="enable-background:new 0 0 480 480;" xml:space="preserve">
<style type="text/css">
	.st0{fill:none;stroke:#000000;stroke-width:15;stroke-miterlimit:10;}
</style>
<path d="M472,106H112c-9.6,0.38-18.75,4.15-25.84,10.64L9.6,193.2C3.45,199.39,0,207.76,0,216.48V286c0,17.67,14.33,32,32,32h16.72
	c-3.3,18.86,4.92,37.88,20.92,48.39c16,10.52,36.72,10.52,52.73,0c16-10.52,24.22-29.54,20.92-48.39h177.44
	c-3.3,18.86,4.92,37.88,20.92,48.39c16,10.52,36.72,10.52,52.73,0c16-10.52,24.22-29.54,20.92-48.39H472c4.42,0,8-3.58,8-8V114
	C480,109.58,476.42,106,472,106z M97.49,127.98c4.07-3.48,9.16-5.58,14.5-5.98H128v72H31.47L97.49,127.98z M96,358
	c-17.67,0-32-14.33-32-32s14.33-32,32-32s32,14.33,32,32S113.67,358,96,358z M160,302h-22.5c-8.55-14.85-24.37-24-41.5-24
	s-32.96,9.15-41.5,24H32c-8.84,0-16-7.16-16-16v-69.52c0.01-2.23,0.46-4.43,1.33-6.48H136c4.42,0,8-3.58,8-8v-80h16V302z M368,358
	c-17.67,0-32-14.33-32-32s14.33-32,32-32s32,14.33,32,32S385.67,358,368,358z M464,302h-54.5c-8.56-14.83-24.38-23.98-41.5-24
	c-17.12,0.02-32.94,9.17-41.5,24H176V122h288V302z"/>
<path class="st0" d="M435.17,113.75H207.33c-3.5,0-6.33,3.78-6.33,8.43v72.38c0,4.66,2.84,8.43,6.33,8.43h227.83
	c3.5,0,6.33-3.78,6.33-8.43v-72.38C441.5,117.53,438.66,113.75,435.17,113.75z"/>
</svg>
