<?xml version="1.0" encoding="utf-8"?>
<!-- Generator: Adobe Illustrator 22.0.1, SVG Export Plug-In . SVG Version: 6.00 Build 0)  -->
<svg version="1.1" id="Layer_1" xmlns="http://www.w3.org/2000/svg" xmlns:xlink="http://www.w3.org/1999/xlink" x="0px" y="0px"
	 viewBox="0 0 480 480" style="enable-background:new 0 0 480 480;" xml:space="preserve">
<path d="M0,246.48V296c0,17.67,14.33,32,32,32h16.72c-3.3,18.86,4.92,37.88,20.92,48.39c16,10.52,36.72,10.52,52.73,0
	c16-10.52,24.22-29.54,20.92-48.39h177.44c-3.3,18.86,4.92,37.88,20.92,48.39c16,10.52,36.72,10.52,52.73,0
	c16-10.52,24.22-29.54,20.92-48.39H472c4.42,0,8-3.58,8-8V104c0-4.42-3.58-8-8-8H168c-4.42,0-8,3.58-8,8v32h-48
	c-9.6,0.38-18.75,4.15-25.84,10.64L9.6,223.2C3.45,229.39,0,237.76,0,246.48z M128,152v72H31.47l66.02-66.02
	c4.07-3.48,9.16-5.58,14.5-5.98L128,152L128,152z M464,112v144H176V112H464z M336,336c0-17.67,14.33-32,32-32s32,14.33,32,32
	s-14.33,32-32,32S336,353.67,336,336z M326.5,312H176v-40h288v40h-54.5c-8.56-14.83-24.38-23.98-41.5-24
	C350.88,288.02,335.06,297.17,326.5,312z M64,336c0-17.67,14.33-32,32-32s32,14.33,32,32s-14.33,32-32,32S64,353.67,64,336z
	 M16,246.48c0.01-2.23,0.46-4.43,1.33-6.48H136c4.42,0,8-3.58,8-8v-80h16v160h-22.5c-8.55-14.85-24.37-24-41.5-24
	s-32.96,9.15-41.5,24H32c-8.84,0-16-7.16-16-16V246.48z"/>
</svg>
