<svg xmlns="http://www.w3.org/2000/svg" viewBox="0 0 14 23.32">
  <path d="M5.85,16.42A9.08,9.08,0,0,1,1,14.7c-.17-.14-.35-.27-.51-.42a1.37,1.37,0,0,1-.19-1.95,1.38,1.38,0,0,1,1.83-.41,3.18,3.18,0,0,1,.4.23,7.9,7.9,0,0,0,8.78.08,2.51,2.51,0,0,1,.86-.44,1.35,1.35,0,0,1,1.54.62,1.3,1.3,0,0,1-.1,1.71,7.06,7.06,0,0,1-2.55,1.65,12.21,12.21,0,0,1-2.9.65l.31.34,4,4a1.33,1.33,0,0,1,.3,1.57,1.58,1.58,0,0,1-1.49.93,1.48,1.48,0,0,1-.94-.48c-1-1-2.05-2-3-3.06-.29-.3-.43-.25-.69,0-1,1-2,2.08-3.09,3.11A1.31,1.31,0,0,1,2,23.17a1.57,1.57,0,0,1-.91-1.46,1.39,1.39,0,0,1,.49-1l4-4Z" />
  <path d="M7,11.8A5.9,5.9,0,1,1,12.89,6,5.9,5.9,0,0,1,7,11.8ZM9.88,5.9A2.89,2.89,0,1,0,7,8.79,2.88,2.88,0,0,0,9.88,5.9Z" />
</svg>
