<?xml version="1.0" encoding="utf-8"?>
<!-- Generator: Adobe Illustrator 22.0.1, SVG Export Plug-In . SVG Version: 6.00 Build 0)  -->
<svg version="1.1" id="Layer_1" xmlns="http://www.w3.org/2000/svg" xmlns:xlink="http://www.w3.org/1999/xlink" x="0px" y="0px"
	 viewBox="0 0 480 480" style="enable-background:new 0 0 480 480;" xml:space="preserve">
<path d="M276,32h-24v16h16v16h16V40C284,35.58,280.42,32,276,32z"/>
<path d="M92,40v24h16V48h16V32h-24C95.58,32,92,35.58,92,40z"/>
<path d="M308,0H68c-4.42,0-8,3.58-8,8v464h16v-40h197.79L308,452.53V480h16v-32c0-2.81-1.47-5.41-3.88-6.86L284,419.47V336
	c0-2.12-0.84-4.16-2.34-5.66l-80.05-80.09c-4.17-4.16-5.42-10.43-3.17-15.87c2.25-5.45,7.56-9,13.45-9
	c3.87-0.01,7.58,1.52,10.3,4.27l84.08,84.09l11.34-11.34l-1.6-1.6v-89.49l34.34,34.34l11.31-11.31L316,188.69v-49.38l80,80V480h16
	V216c0-2.12-0.84-4.16-2.34-5.66L316,116.69V8C316,3.58,312.42,0,308,0z M268,252.86l-25.33-25.33
	c5.41-24.58-6.04-49.78-28.11-61.88s-49.48-8.2-67.29,9.59s-21.77,45.18-9.71,67.27c12.06,22.09,37.24,33.59,61.83,28.22
	l59.62,59.62c-24.89,6.89-43.22,28.04-46.51,53.66H163.5c-3.7-28.98-26.52-51.8-55.5-55.5v-225c28.98-3.7,51.8-26.52,55.5-55.5
	h48.99c3.7,28.98,26.52,51.8,55.5,55.5V252.86z M211.87,209.39h-0.04c-11.03,0-21.21,5.96-26.6,15.58
	c-5.39,9.63-5.16,21.41,0.6,30.82c-21.49-1.13-38.22-19.09-37.82-40.61s17.78-38.85,39.3-39.18s39.43,16.46,40.48,37.96
	C223.02,210.99,217.5,209.41,211.87,209.39z M284,268.86V96c0-4.42-3.58-8-8-8c-26.5-0.03-47.97-21.5-48-48c0-4.42-3.58-8-8-8h-64
	c-4.42,0-8,3.58-8,8c-0.03,26.5-21.5,47.97-48,48c-4.42,0-8,3.58-8,8v240c0,4.42,3.58,8,8,8c26.5,0.03,47.97,21.5,48,48
	c0,4.42,3.58,8,8,8h64c4.42,0,8-3.58,8-8c0.04-23.4,16.93-43.36,40-47.28V416H76V16h224v268.86L284,268.86z"/>
<path d="M92,392c0,4.42,3.58,8,8,8h24v-16h-16v-16H92V392z"/>
</svg>
