<?xml version="1.0" encoding="utf-8"?>
<!-- Generator: Adobe Illustrator 22.0.1, SVG Export Plug-In . SVG Version: 6.00 Build 0)  -->
<svg version="1.1" id="Layer_1" xmlns="http://www.w3.org/2000/svg" xmlns:xlink="http://www.w3.org/1999/xlink" x="0px" y="0px"
	 viewBox="0 0 512 512" style="enable-background:new 0 0 512 512;" xml:space="preserve">
<style type="text/css">
	.st0{fill:#076AF2;}
</style>
<path class="st0" d="M494.66,399.56l-89.81-89.81l-11.98,11.97c-3.34,3.21-8.63,3.21-11.97,0c-1.59-1.59-2.48-3.74-2.48-5.99
	c-0.01-2.25,0.89-4.41,2.49-5.99l17.96-17.97l-35.93-35.93l-35.92,35.92l-18.63-18.63l102.02-102.06c3.94,0.59,7.92,0.91,11.91,0.94
	c29.05-0.03,56.06-14.96,71.54-39.54c15.48-24.59,17.26-55.39,4.73-81.6l-5.16-10.78l-56.03,56.02l-19.97-3.98l-3.99-19.96
	l56.02-56.03l-10.78-5.17c-28.1-13.5-61.36-10.41-86.5,8.03c-25.14,18.44-38.08,49.23-33.65,80.09L236.43,201.2L108.27,73.04
	l-6.78-31.65L33.31,0.74L0,33.99l41.43,68.95L72.38,109l128.1,128.12L98.64,338.99c-36.08-5.12-71.38,13.41-87.66,46
	c-16.28,32.6-9.88,71.95,15.89,97.72c25.76,25.76,65.12,32.16,97.72,15.87c32.59-16.28,51.12-51.59,46-87.67l101.84-101.85
	l18.63,18.63l-35.92,35.91l35.92,35.93l17.97-17.97c2.42-2.42,6.06-3.15,9.22-1.84c3.16,1.31,5.23,4.4,5.23,7.82
	c0,2.25-0.89,4.41-2.49,6l-11.97,11.97l89.85,89.85c23.16,23.12,60.67,23.12,83.83,0l11.97-11.97
	C517.78,460.23,517.78,422.72,494.66,399.56z M374.31,39.44c17.11-17.1,42.05-23.78,65.43-17.52L395.05,66.6l7.99,39.92l39.92,7.98
	l44.67-44.67c8.51,31.76-7.02,65.04-36.82,78.93c-29.8,13.89-65.28,4.37-84.13-22.56C347.83,99.26,351.05,62.68,374.31,39.44z
	 M80.72,93.41L52.06,87.8L21.34,36.65l14.62-14.62l50.52,30.13l6.28,29.32l131.69,131.7l-11.99,11.98L80.72,93.41z M134.79,470.57
	c-21.67,21.67-55.2,26.1-81.75,10.79c-26.55-15.31-39.52-46.55-31.61-76.16c7.91-29.61,34.71-50.23,65.36-50.27
	c4.47,0,8.93,0.44,13.31,1.31c24.51,4.87,44.35,22.85,51.61,46.76c7.26,23.91,0.77,49.88-16.89,67.56L134.79,470.57z M165.74,391.81
	c-0.54-1.38-1.18-2.72-1.91-4.01c-8.51-19.47-24.28-34.85-43.95-42.89c-0.71-0.36-1.4-0.8-2.12-1.08l225.61-225.62
	c0.28,0.71,0.72,1.41,1.08,2.12c8.03,19.67,23.42,35.43,42.89,43.94c1.29,0.74,2.63,1.38,4.01,1.92L165.74,391.81z M284.39,297.09
	l11.99-11.99l18.63,18.63l-11.99,11.99L284.39,297.09z M482.69,471.42l-11.97,11.97c-16.55,16.51-43.33,16.51-59.88,0l-77.85-77.85
	c6.5-6.4,9.08-15.79,6.74-24.62c-2.34-8.82-9.22-15.71-18.04-18.05s-18.22,0.23-24.62,6.74l-6,6l-11.97-11.98l83.83-83.83
	l11.97,11.97l-5.98,5.99c-9.92,9.92-9.92,26.01,0,35.93c10.06,9.59,25.88,9.59,35.93,0l77.84,77.84
	C499.22,428.08,499.21,454.88,482.69,471.42z"/>
<path class="st0" d="M74.24,375.44l-34.57,34.57l12.65,47.23l47.26,12.65l34.58-34.58l-12.66-47.22L74.24,375.44z M94.51,451.01
	l-28.34-7.62l-7.62-28.34l20.72-20.72l28.34,7.62l7.62,28.32L94.51,451.01z"/>
<path class="st0" d="M158.75,338.83l179.64-179.64l11.97,11.97L170.72,350.8L158.75,338.83z"/>
<path class="st0" d="M327.01,339.68l11.97-11.97l125.75,125.76l-11.98,11.97L327.01,339.68z"/>
</svg>
