<svg height="480pt" viewBox="0 -64 480.00348 480" width="480pt" xmlns="http://www.w3.org/2000/svg"><path d="m153.292969 96h125.40625c4.417969 0 8-3.582031 8-8s-3.582031-8-8-8h-125.40625c-4.417969 0-8 3.582031-8 8s3.582031 8 8 8zm0 0"/><path d="m310.699219 96h8c4.417969 0 8-3.582031 8-8s-3.582031-8-8-8h-8c-4.417969 0-8 3.582031-8 8s3.582031 8 8 8zm0 0"/><path d="m87.996094 112h-80c-2.699219 0-5.214844 1.363281-6.691406 3.621094-1.476563 2.253906-1.714844 5.105468-.636719 7.578125 13.601562 31.183593 43.964843 51.730469 77.972656 52.757812 34.003906 1.027344 65.554687-17.648437 81.011719-47.957031h160.6875c15.457031 30.308594 47.007812 48.984375 81.011718 47.957031 34.007813-1.027343 64.371094-21.574219 77.972657-52.757812 1.078125-2.472657.839843-5.324219-.636719-7.578125-1.476562-2.257813-3.992188-3.621094-6.691406-3.621094h-73.296875c-13.253907 0-24-10.746094-24-24s10.746093-24 24-24h73.296875c2.699218-.003906 5.214844-1.363281 6.691406-3.621094 1.476562-2.257812 1.714844-5.105468.636719-7.578125-13.601563-31.1875-43.964844-51.730469-77.972657-52.7578122-34.003906-1.0273438-65.554687 17.6484372-81.011718 47.9570312h-160.6875c-15.457032-30.308594-47.007813-48.984375-81.011719-47.9570312-34.007813 1.0273432-64.371094 21.5703122-77.972656 52.7578122-1.078125 2.472657-.839844 5.320313.636719 7.578125 1.476562 2.257813 3.992187 3.617188 6.691406 3.621094h80c13.253906 0 24 10.746094 24 24s-10.746094 24-24 24zm0-64h-66.535156c14.613281-21.886719 40.007812-34.050781 66.222656-31.71875 26.210937 2.332031 49.058594 18.792969 59.578125 42.917969 1.269531 2.914062 4.148437 4.796875 7.324219 4.800781h170.816406c3.179687-.003906 6.058594-1.886719 7.328125-4.800781 10.515625-24.125 33.367187-40.585938 59.578125-42.917969 26.214844-2.332031 51.609375 9.832031 66.222656 31.71875h-59.832031c-22.089844 0-40 17.90625-40 40 0 22.089844 17.910156 40 40 40h59.832031c-14.613281 21.886719-40.007812 34.050781-66.222656 31.71875-26.210938-2.335938-49.0625-18.792969-59.578125-42.917969-1.269531-2.914062-4.148438-4.800781-7.328125-4.800781h-170.816406c-3.175782 0-6.054688 1.886719-7.324219 4.800781-10.519531 24.125-33.367188 40.582031-59.578125 42.917969-26.214844 2.332031-51.609375-9.832031-66.222656-31.71875h66.535156c22.089844 0 40-17.910156 40-40 0-22.09375-17.910156-40-40-40zm0 0"/><path d="m474.1875 288.304688-56-16c-.710938-.203126-1.449219-.304688-2.191406-.304688h-144v-16c0-4.417969-3.582032-8-8-8h-48c-.929688.109375-1.847656.292969-2.746094.550781-.175781.066407-.359375.113281-.535156.191407-.175782.082031-.199219.058593-.296875.097656l-20.421875 10.214844v-11.054688c0-4.417969-3.582032-8-8-8h-148.472656c-10.3125.015625-19.464844 6.621094-22.726563 16.40625l-12.386719 37.066406c-.0625.191406-.292968 1.261719-.3359372 1.597656-.015625.308594-.015625.621094 0 .929688-.015625.304688-.015625.613281 0 .917969.0859372.539062.1992192 1.074219.3359372 1.601562l12.386719 37.070313c3.261719 9.785156 12.414063 16.390625 22.726563 16.410156h148.472656c4.417968 0 8-3.582031 8-8v-11.058594l20.421875 10.257813c1.15625.414062 2.355469.683593 3.578125.800781h48c4.417968 0 8-3.582031 8-8v-16h144c.742187 0 1.480468-.101562 2.191406-.304688l56-16c3.441406-.976562 5.816406-4.117187 5.816406-7.695312s-2.375-6.71875-5.816406-7.695312zm-446.253906-26.832032c1.085937-3.269531 4.144531-5.472656 7.589844-5.472656h140.472656v32h-156.894532zm148.0625 74.527344h-140.472656c-3.445313 0-6.503907-2.203125-7.589844-5.472656l-8.832032-26.527344h156.894532zm16-59.058594 16-8v54.113282l-16-8zm64 51.058594h-32v-64h32zm158.878906-24h-142.878906v-16h142.878906l28 8zm0 0"/></svg>