<?xml version="1.0" encoding="utf-8"?>
<!-- Generator: Adobe Illustrator 22.0.1, SVG Export Plug-In . SVG Version: 6.00 Build 0)  -->
<svg version="1.1" id="Capa_1" xmlns="http://www.w3.org/2000/svg" xmlns:xlink="http://www.w3.org/1999/xlink" x="0px" y="0px"
	 viewBox="0 0 512 512" style="enable-background:new 0 0 512 512;" xml:space="preserve">
<style type="text/css">
	.st0{fill:#076AF2;}
</style>
<g>
	<g>
		<path class="st0" d="M475.95,230.86l-40.25-40.75c-2.78-2.81-6.64-4.43-10.6-4.43h-63.09c-8.21,0-14.9,6.68-14.9,14.9v69.6
			c0,8.21,6.68,14.9,14.9,14.9h103.33c8.21,0,14.9-6.68,14.9-14.9v-28.86C480.25,237.38,478.72,233.66,475.95,230.86z
			 M465.35,270.46H362.01c-0.15,0-0.27-0.12-0.27-0.27v-69.6c0-0.15,0.12-0.27,0.27-0.27h63.09c0.07,0,0.14,0.03,0.19,0.08
			l40.25,40.74c0.05,0.05,0.08,0.12,0.08,0.19v28.86h0C465.62,270.33,465.5,270.46,465.35,270.46z"/>
	</g>
</g>
<g>
	<g>
		<path class="st0" d="M373.05,293.99h-18.62c-4.04,0-7.31,3.27-7.31,7.31s3.27,7.31,7.31,7.31h18.62c4.04,0,7.31-3.27,7.31-7.31
			S377.09,293.99,373.05,293.99z"/>
	</g>
</g>
<g>
	<g>
		<path class="st0" d="M273.1,245.91c-12.43,0-22.54,10.11-22.54,22.54c0,12.43,10.11,22.54,22.54,22.54s22.54-10.11,22.54-22.54
			C295.64,256.02,285.53,245.91,273.1,245.91z M273.1,276.36c-4.36,0-7.92-3.55-7.92-7.92c0-4.36,3.55-7.92,7.92-7.92
			c4.36,0,7.92,3.55,7.92,7.92C281.02,272.81,277.46,276.36,273.1,276.36z"/>
	</g>
</g>
<g>
	<g>
		<path class="st0" d="M504.59,215.35l-52.31-52.96c-4.79-4.85-11.45-7.63-18.27-7.63h-94.2c-13.48,0-24.45,10.97-24.45,24.45v67.13
			c-8.17-14.96-24.05-25.14-42.26-25.14c-26.53,0-48.11,21.58-48.11,48.11v42.26h-71.94c-7.31-15.76-23.33-26.12-40.88-26.12H70.73
			c-17.55,0-33.57,10.37-40.88,26.12H14.51c-8,0-14.51,6.51-14.51,14.51v46.73c0,1.1,0.07,2.21,0.2,3.29
			c0.01,0.05,0.01,0.1,0.02,0.15c1.42,9.77,9.93,17.14,19.8,17.14h15.3c5.81,25.36,28.54,44.34,55.64,44.34
			c27.1,0,49.83-18.98,55.64-44.34h216.23c5.81,25.36,28.54,44.34,55.64,44.34c27.1,0,49.83-18.98,55.64-44.34h6.1
			c8.32,0,16.23-3.21,22.26-9.05c6.14-5.93,9.52-13.8,9.52-22.14V233.39C512,226.59,509.37,220.18,504.59,215.35z M239.61,269.3
			c0-18.46,15.02-33.49,33.49-33.49s33.49,15.02,33.49,33.49v42.26h-66.97L239.61,269.3L239.61,269.3z M133.17,385.26
			c-2.31,21.25-20.36,37.84-42.21,37.84c-21.85,0-39.88-16.58-42.21-37.82c-0.17-1.57-0.26-3.14-0.26-4.65
			c0-23.42,19.05-42.47,42.47-42.47s42.47,19.05,42.47,42.47C133.43,382.13,133.34,383.69,133.17,385.26z M148.02,378.77
			c-0.01-0.18-0.02-0.36-0.03-0.53c-0.02-0.47-0.05-0.95-0.08-1.42c-0.03-0.49-0.07-0.98-0.11-1.46c-0.04-0.47-0.1-0.93-0.15-1.39
			c-0.06-0.48-0.12-0.96-0.18-1.44c-0.07-0.46-0.14-0.91-0.21-1.37c-0.08-0.48-0.16-0.95-0.26-1.43c-0.09-0.45-0.18-0.89-0.28-1.34
			c-0.1-0.47-0.21-0.94-0.33-1.41c-0.11-0.44-0.22-0.88-0.34-1.31c-0.13-0.46-0.26-0.93-0.4-1.39c-0.13-0.43-0.26-0.85-0.4-1.28
			c-0.15-0.46-0.3-0.91-0.46-1.37c-0.15-0.42-0.3-0.83-0.46-1.24c-0.17-0.45-0.35-0.9-0.53-1.34c-0.17-0.4-0.34-0.81-0.51-1.21
			c-0.19-0.44-0.39-0.88-0.6-1.31c-0.18-0.39-0.37-0.79-0.57-1.17c-0.21-0.43-0.43-0.86-0.66-1.28c-0.2-0.38-0.41-0.76-0.62-1.14
			c-0.23-0.42-0.48-0.83-0.72-1.25c-0.22-0.37-0.44-0.74-0.67-1.1c-0.25-0.41-0.51-0.81-0.78-1.21c-0.24-0.36-0.47-0.71-0.71-1.07
			c-0.27-0.4-0.55-0.79-0.84-1.18c-0.25-0.34-0.5-0.69-0.76-1.03c-0.29-0.38-0.59-0.76-0.89-1.14c-0.26-0.33-0.53-0.66-0.8-0.98
			c-0.31-0.37-0.63-0.73-0.95-1.1c-0.28-0.32-0.56-0.63-0.85-0.94c-0.33-0.36-0.66-0.7-1-1.05c-0.29-0.3-0.59-0.61-0.89-0.9
			c-0.35-0.34-0.7-0.67-1.05-1c-0.31-0.29-0.61-0.58-0.93-0.86c-0.36-0.32-0.73-0.64-1.1-0.95c-0.32-0.27-0.64-0.55-0.96-0.81
			c-0.38-0.31-0.76-0.6-1.15-0.9c-0.33-0.26-0.66-0.52-1-0.77c-0.39-0.29-0.79-0.57-1.19-0.85c-0.34-0.24-0.69-0.48-1.04-0.72
			c-0.41-0.27-0.82-0.53-1.24-0.79c-0.36-0.22-0.71-0.45-1.07-0.67c-0.42-0.25-0.85-0.49-1.28-0.73c-0.36-0.21-0.73-0.42-1.1-0.62
			c-0.43-0.23-0.88-0.45-1.32-0.67c-0.38-0.19-0.75-0.38-1.13-0.57c-0.45-0.21-0.9-0.41-1.36-0.61c-0.38-0.17-0.76-0.35-1.15-0.51
			c-0.46-0.19-0.93-0.37-1.4-0.55c-0.39-0.15-0.78-0.31-1.17-0.45c-0.47-0.17-0.96-0.33-1.44-0.49c-0.4-0.13-0.79-0.27-1.19-0.39
			c-0.49-0.15-0.99-0.28-1.48-0.42c-0.4-0.11-0.8-0.23-1.2-0.34c-0.51-0.13-1.02-0.24-1.53-0.36c-0.4-0.09-0.8-0.19-1.2-0.27
			c-0.53-0.11-1.07-0.2-1.61-0.29c-0.39-0.07-0.78-0.15-1.18-0.21c-0.57-0.09-1.14-0.15-1.71-0.22c-0.37-0.05-0.74-0.1-1.12-0.14
			c-0.64-0.06-1.28-0.1-1.92-0.15c-0.32-0.02-0.63-0.05-0.95-0.07c-0.96-0.05-1.93-0.07-2.9-0.07s-1.94,0.02-2.9,0.07
			c-0.32,0.02-0.64,0.05-0.96,0.07c-0.64,0.04-1.28,0.08-1.91,0.15c-0.38,0.04-0.75,0.1-1.13,0.14c-0.57,0.07-1.14,0.13-1.7,0.22
			c-0.4,0.06-0.79,0.14-1.19,0.21c-0.53,0.09-1.07,0.18-1.59,0.29c-0.41,0.08-0.81,0.18-1.22,0.28c-0.51,0.11-1.01,0.22-1.52,0.35
			c-0.41,0.11-0.82,0.23-1.22,0.34c-0.49,0.14-0.98,0.27-1.46,0.42c-0.41,0.13-0.81,0.27-1.21,0.4c-0.47,0.16-0.95,0.31-1.41,0.48
			c-0.4,0.15-0.8,0.31-1.2,0.46c-0.46,0.18-0.92,0.35-1.37,0.54c-0.4,0.17-0.79,0.35-1.18,0.52c-0.44,0.2-0.89,0.39-1.33,0.6
			c-0.39,0.19-0.77,0.39-1.16,0.58c-0.43,0.22-0.86,0.43-1.28,0.66c-0.38,0.21-0.76,0.42-1.13,0.64c-0.42,0.24-0.83,0.47-1.24,0.71
			c-0.37,0.22-0.74,0.46-1.1,0.69c-0.4,0.25-0.8,0.51-1.2,0.77c-0.36,0.24-0.72,0.49-1.07,0.74c-0.39,0.27-0.77,0.54-1.15,0.82
			c-0.35,0.26-0.69,0.53-1.04,0.8c-0.37,0.29-0.74,0.58-1.11,0.87c-0.34,0.28-0.67,0.56-1,0.84c-0.36,0.3-0.71,0.61-1.06,0.92
			c-0.33,0.29-0.65,0.59-0.97,0.89c-0.34,0.32-0.68,0.64-1.01,0.96c-0.31,0.31-0.62,0.63-0.92,0.94c-0.32,0.33-0.65,0.67-0.96,1.01
			c-0.3,0.32-0.59,0.65-0.88,0.99c-0.31,0.35-0.61,0.7-0.91,1.05c-0.28,0.34-0.56,0.68-0.84,1.03c-0.29,0.36-0.58,0.72-0.85,1.09
			c-0.27,0.36-0.53,0.72-0.8,1.08c-0.27,0.37-0.54,0.74-0.8,1.12c-0.26,0.37-0.5,0.74-0.75,1.12c-0.25,0.38-0.5,0.77-0.74,1.16
			c-0.24,0.38-0.47,0.77-0.7,1.16c-0.23,0.39-0.46,0.79-0.69,1.19c-0.22,0.4-0.44,0.8-0.65,1.2c-0.21,0.4-0.42,0.81-0.63,1.22
			c-0.2,0.41-0.4,0.82-0.59,1.24c-0.19,0.41-0.38,0.83-0.57,1.25c-0.19,0.42-0.36,0.85-0.54,1.27c-0.17,0.42-0.34,0.85-0.5,1.27
			c-0.17,0.43-0.33,0.87-0.48,1.31c-0.15,0.43-0.3,0.86-0.44,1.3c-0.15,0.45-0.29,0.89-0.42,1.35c-0.13,0.44-0.25,0.88-0.38,1.32
			c-0.13,0.46-0.24,0.92-0.36,1.38c-0.11,0.44-0.21,0.89-0.31,1.33c-0.1,0.47-0.2,0.94-0.29,1.41c-0.09,0.45-0.17,0.9-0.24,1.35
			c-0.08,0.48-0.16,0.96-0.23,1.44c-0.06,0.45-0.12,0.91-0.17,1.36c-0.06,0.49-0.11,0.98-0.16,1.47c-0.04,0.46-0.07,0.92-0.1,1.38
			c-0.03,0.5-0.06,1-0.09,1.5c-0.01,0.17-0.02,0.33-0.03,0.5H20.02c-2.63,0-4.91-1.95-5.32-4.55c-0.05-0.47-0.08-0.94-0.08-1.42
			V326.2h20.06c2.92,0,5.55-1.73,6.71-4.41l0.71-1.63c0.05-0.11,0.09-0.23,0.14-0.34c4.42-11.81,15.87-19.75,28.49-19.75h41.44
			c12.61,0,24.06,7.94,28.49,19.75c0.04,0.11,0.09,0.23,0.14,0.34l0.7,1.63c1.16,2.68,3.8,4.41,6.71,4.41h167.16v52.57
			L148.02,378.77L148.02,378.77z M460.68,385.29c-2.33,21.24-20.36,37.82-42.21,37.82c-21.85,0-39.9-16.6-42.21-37.84
			c-0.17-1.57-0.26-3.13-0.26-4.63c0-23.42,19.05-42.47,42.47-42.47c23.42,0,42.47,19.05,42.47,42.47
			C460.94,382.14,460.85,383.71,460.68,385.29z M497.38,362.21L497.38,362.21c0,8.98-7.86,16.56-17.16,16.56h-4.67
			c-0.01-0.18-0.02-0.36-0.03-0.53c-0.02-0.47-0.05-0.95-0.08-1.42c-0.03-0.49-0.07-0.98-0.11-1.46c-0.04-0.47-0.1-0.93-0.15-1.39
			c-0.06-0.48-0.11-0.96-0.18-1.44c-0.07-0.46-0.14-0.91-0.21-1.37c-0.08-0.48-0.16-0.95-0.26-1.43c-0.09-0.45-0.18-0.89-0.28-1.34
			c-0.1-0.47-0.21-0.94-0.33-1.41c-0.11-0.44-0.22-0.88-0.34-1.31c-0.13-0.46-0.26-0.93-0.39-1.39c-0.13-0.43-0.26-0.85-0.4-1.28
			c-0.15-0.46-0.3-0.91-0.46-1.37c-0.15-0.42-0.3-0.83-0.45-1.24c-0.17-0.45-0.35-0.9-0.53-1.34c-0.17-0.4-0.34-0.81-0.51-1.21
			c-0.19-0.44-0.39-0.88-0.6-1.31c-0.18-0.39-0.37-0.79-0.57-1.17c-0.21-0.43-0.43-0.86-0.66-1.28c-0.2-0.38-0.41-0.76-0.62-1.14
			c-0.23-0.42-0.48-0.83-0.72-1.25c-0.22-0.37-0.44-0.74-0.67-1.1c-0.25-0.41-0.51-0.81-0.78-1.21c-0.23-0.36-0.47-0.71-0.71-1.07
			c-0.27-0.4-0.55-0.79-0.84-1.18c-0.25-0.34-0.5-0.69-0.76-1.03c-0.29-0.38-0.59-0.76-0.89-1.14c-0.27-0.33-0.53-0.66-0.8-0.98
			c-0.31-0.37-0.63-0.73-0.95-1.1c-0.28-0.32-0.56-0.63-0.85-0.94c-0.33-0.36-0.67-0.7-1-1.05c-0.29-0.3-0.59-0.61-0.89-0.9
			c-0.35-0.34-0.7-0.67-1.05-1c-0.31-0.29-0.61-0.58-0.93-0.86c-0.36-0.32-0.73-0.64-1.1-0.95c-0.32-0.27-0.64-0.55-0.96-0.81
			c-0.38-0.31-0.76-0.6-1.15-0.9c-0.33-0.26-0.66-0.52-1-0.77c-0.39-0.29-0.79-0.57-1.19-0.85c-0.34-0.24-0.69-0.48-1.04-0.72
			c-0.41-0.27-0.82-0.53-1.24-0.79c-0.36-0.22-0.71-0.45-1.07-0.67c-0.42-0.25-0.85-0.49-1.28-0.73c-0.36-0.21-0.73-0.42-1.1-0.62
			c-0.43-0.23-0.88-0.45-1.32-0.67c-0.38-0.19-0.75-0.38-1.13-0.57c-0.45-0.21-0.9-0.41-1.36-0.61c-0.38-0.17-0.76-0.35-1.15-0.51
			c-0.46-0.19-0.93-0.37-1.4-0.55c-0.39-0.15-0.78-0.31-1.17-0.45c-0.48-0.17-0.96-0.33-1.44-0.49c-0.4-0.13-0.79-0.27-1.19-0.39
			c-0.49-0.15-0.99-0.28-1.48-0.42c-0.4-0.11-0.8-0.23-1.2-0.34c-0.51-0.13-1.02-0.24-1.53-0.36c-0.4-0.09-0.8-0.19-1.2-0.27
			c-0.53-0.11-1.07-0.2-1.61-0.29c-0.39-0.07-0.78-0.15-1.18-0.21c-0.57-0.09-1.14-0.15-1.71-0.22c-0.37-0.05-0.74-0.1-1.12-0.14
			c-0.64-0.06-1.28-0.1-1.92-0.15c-0.32-0.02-0.63-0.05-0.95-0.07c-0.96-0.05-1.93-0.07-2.9-0.07s-1.94,0.02-2.9,0.07
			c-0.32,0.02-0.63,0.05-0.95,0.07c-0.64,0.04-1.28,0.08-1.92,0.15c-0.38,0.04-0.74,0.09-1.12,0.14c-0.57,0.07-1.14,0.13-1.71,0.22
			c-0.39,0.06-0.78,0.14-1.17,0.21c-0.54,0.09-1.08,0.18-1.61,0.29c-0.4,0.08-0.8,0.18-1.2,0.27c-0.51,0.12-1.03,0.23-1.54,0.36
			c-0.4,0.1-0.8,0.22-1.2,0.34c-0.49,0.14-0.99,0.27-1.48,0.42c-0.4,0.12-0.79,0.26-1.19,0.39c-0.48,0.16-0.96,0.32-1.44,0.49
			c-0.39,0.14-0.78,0.3-1.17,0.45c-0.47,0.18-0.94,0.36-1.4,0.55c-0.39,0.16-0.77,0.34-1.15,0.51c-0.45,0.2-0.91,0.4-1.36,0.61
			c-0.38,0.18-0.75,0.38-1.13,0.57c-0.44,0.22-0.88,0.44-1.32,0.67c-0.37,0.2-0.73,0.41-1.1,0.62c-0.43,0.24-0.86,0.48-1.28,0.73
			c-0.36,0.22-0.71,0.44-1.07,0.67c-0.41,0.26-0.83,0.52-1.24,0.79c-0.35,0.23-0.69,0.48-1.04,0.72c-0.4,0.28-0.8,0.56-1.19,0.85
			c-0.34,0.25-0.67,0.51-1,0.77c-0.39,0.3-0.77,0.6-1.15,0.9c-0.33,0.27-0.64,0.54-0.96,0.81c-0.37,0.32-0.74,0.63-1.1,0.96
			c-0.31,0.28-0.62,0.57-0.92,0.86c-0.35,0.33-0.71,0.66-1.05,1c-0.3,0.3-0.59,0.6-0.89,0.9c-0.34,0.35-0.67,0.7-1,1.05
			c-0.29,0.31-0.57,0.63-0.85,0.94c-0.32,0.36-0.64,0.73-0.95,1.1c-0.27,0.32-0.54,0.65-0.8,0.98c-0.3,0.38-0.6,0.75-0.89,1.14
			c-0.26,0.34-0.51,0.68-0.76,1.03c-0.28,0.39-0.56,0.78-0.84,1.18c-0.24,0.35-0.48,0.71-0.71,1.06c-0.26,0.4-0.53,0.81-0.78,1.22
			c-0.23,0.36-0.45,0.73-0.66,1.1c-0.24,0.42-0.49,0.83-0.72,1.25c-0.21,0.38-0.41,0.76-0.61,1.14c-0.23,0.43-0.45,0.85-0.66,1.29
			c-0.19,0.39-0.38,0.78-0.56,1.17c-0.2,0.43-0.4,0.87-0.59,1.31c-0.17,0.4-0.35,0.8-0.51,1.21c-0.18,0.45-0.36,0.89-0.53,1.34
			c-0.16,0.41-0.31,0.83-0.45,1.24c-0.16,0.45-0.31,0.91-0.46,1.37c-0.14,0.42-0.27,0.85-0.4,1.27c-0.14,0.46-0.27,0.92-0.39,1.39
			c-0.12,0.43-0.23,0.87-0.34,1.31c-0.11,0.47-0.22,0.94-0.33,1.41c-0.1,0.44-0.19,0.89-0.28,1.34c-0.09,0.47-0.18,0.95-0.26,1.43
			c-0.08,0.45-0.15,0.91-0.21,1.37c-0.07,0.48-0.13,0.96-0.18,1.44c-0.05,0.46-0.11,0.93-0.15,1.39c-0.05,0.48-0.08,0.97-0.11,1.46
			c-0.03,0.47-0.06,0.94-0.08,1.42c-0.01,0.18-0.02,0.35-0.03,0.53h-31.42V179.2c0-5.41,4.4-9.82,9.82-9.82h94.2
			c2.94,0,5.8,1.2,7.86,3.29l52.31,52.96c2.06,2.08,3.19,4.84,3.19,7.77L497.38,362.21L497.38,362.21z"/>
	</g>
</g>
<g>
	<g>
		<path class="st0" d="M418.47,350.38c-16.68,0-30.26,13.57-30.26,30.26s13.57,30.26,30.26,30.26s30.26-13.57,30.26-30.26
			C448.73,363.95,435.16,350.38,418.47,350.38z M418.47,396.27c-8.62,0-15.63-7.01-15.63-15.63c0-8.62,7.01-15.63,15.63-15.63
			c8.62,0,15.63,7.01,15.63,15.63C434.11,389.26,427.09,396.27,418.47,396.27z"/>
	</g>
</g>
<g>
	<g>
		<path class="st0" d="M112.36,359.24c-11.8-11.8-31-11.8-42.79,0c-11.8,11.8-11.8,30.99,0,42.79c5.9,5.9,13.65,8.85,21.4,8.85
			c7.75,0,15.5-2.95,21.4-8.85C124.15,390.23,124.15,371.04,112.36,359.24z M102.01,391.69c-6.09,6.1-16.01,6.09-22.11,0
			c-6.1-6.1-6.1-16.01,0-22.11c3.05-3.05,7.05-4.57,11.05-4.57c4,0,8,1.52,11.05,4.57C108.11,375.68,108.11,385.6,102.01,391.69z"/>
	</g>
</g>
<g>
	<g>
		<path class="st0" d="M293.54,225.1L113.14,80.29c-5.39-4.22-12.12-6.35-18.96-5.98c-7.48,0.4-14.38,3.67-19.42,9.21
			c-9.92,10.9-9.75,27.8,0.37,38.47c0.02,0.02,0.05,0.05,0.07,0.07l8.45,8.67v75.15c0,0.12-0.05,0.2-0.03,0.2
			c-14.42,3.54-24.21,16.89-23.29,31.75c0.96,15.4,13.29,27.73,28.68,28.68c0.66,0.04,1.32,0.06,1.98,0.06
			c7.84,0,15.23-2.92,20.98-8.32c6.15-5.78,9.68-13.93,9.68-22.37c0-4.04-3.27-7.31-7.31-7.31s-7.31,3.27-7.31,7.31
			c0,4.48-1.8,8.64-5.07,11.71c-3.26,3.07-7.56,4.6-12.04,4.32c-7.92-0.49-14.5-7.08-14.99-14.99c-0.48-7.79,4.64-14.79,12.18-16.64
			c6.57-1.61,11.17-7.54,11.17-14.4v-60.14l125.05,128.2c1.43,1.47,3.33,2.21,5.24,2.21c1.84,0,3.68-0.69,5.1-2.08
			c2.89-2.82,2.95-7.45,0.13-10.34L85.71,111.9c-4.85-5.14-4.91-13.28-0.13-18.53c2.43-2.68,5.77-4.26,9.38-4.45
			c3.29-0.17,6.55,0.85,9.09,2.84l180.33,144.76c3.15,2.53,7.75,2.02,10.28-1.13C297.19,232.23,296.69,227.63,293.54,225.1z"/>
	</g>
</g>
</svg>
