<?xml version="1.0" encoding="utf-8"?>
<!-- Generator: Adobe Illustrator 22.0.1, SVG Export Plug-In . SVG Version: 6.00 Build 0)  -->
<svg version="1.1" id="Capa_1" xmlns="http://www.w3.org/2000/svg" xmlns:xlink="http://www.w3.org/1999/xlink" x="0px" y="0px"
	 viewBox="0 0 512 512" style="enable-background:new 0 0 512 512;" xml:space="preserve">
<style type="text/css">
	.st0{fill:#076AF2;}
</style>
<rect x="172.75" y="370.63" class="st0" width="167.04" height="14.63"/>
<path class="st0" d="M445.28,385.35v-0.2h-0.2v-14.62h43.47c4.75,0,8.62-3.87,8.62-8.62v-8.71h-8.62
	c-12.87,0-23.33-10.47-23.33-23.33v-8.01c0-12.87,10.47-23.33,23.33-23.33h8.62v-17.3H351.79v56.07h-14.82v-55.51H15.29v80.14
	c0,4.8,3.91,8.71,8.71,8.71h43.47v14.63H23.99c-12.87,0-23.33-10.47-23.33-23.33v-85.03l-0.04-0.01c-0.42-1-0.62-2.02-0.62-3.04
	V81.6c0-17.65,14.36-32,32.01-32h288.35c11.41,0,22.04,6.27,27.76,16.36l0.17,0.31h72.66c10.05,0,18.95,6.41,22.13,15.95
	l10.69,32.09l0.41,0.02c9.7,0.5,17.96,6.75,21.02,15.92l12.37,37.11l0.04,0.13c0.01,0.11,0.03,0.17,0.05,0.26
	c0.04,0.13,0.06,0.19,0.09,0.24l24.05,104.16c0,0.13-0.01,0.22-0.02,0.29c-0.01,0.13-0.02,0.28,0,0.45c0.02,0.14,0.05,0.3,0.11,0.51
	l0.03,0.12c0.03,0.11,0.06,0.21,0.06,0.3v88.1c0,12.92-10.51,23.42-23.42,23.42H445.28z M488.56,313.18c-4.8,0-8.71,3.91-8.71,8.71
	v8.01c0,4.8,3.91,8.71,8.71,8.71h0.8l0.19-0.01h7.62v-25.41H488.56z M495.27,266.44l-20.62-89.32h-122.3v17.32h24.07
	c12.87,0,23.33,10.47,23.33,23.33v48.67H495.27z M385.13,266.42v-48.66c0-4.8-3.91-8.71-8.71-8.71h-24.07v57.36H385.13z
	 M336.42,265.87V81.6c0-8.86-7.21-16.07-16.06-16.07H32.01c-8.85,0-16.05,7.21-16.05,16.07v184.27H336.42z M470.28,162.31
	l-9.12-27.36c-1.17-3.52-4.46-5.88-8.18-5.88H352.35v33.24H470.28z M438.34,114.25l-9.13-27.4c-1.19-3.55-4.51-5.94-8.26-5.94h-5.08
	v8.11h-14.82v-8.11h-17.22v8.11h-14.82v-8.11h-16.67l0.01,33.34H438.34z"/>
<path class="st0" d="M88.08,217.36c-23.08,0-46.45-18.85-54.87-36.32c-1.14-2.37-0.99-5.1,0.41-7.31c1.36-2.18,3.82-3.54,6.41-3.54
	h40.49v-16.89h-40.5c-2.63,0-5.02-1.33-6.41-3.55c-1.4-2.23-1.55-4.96-0.41-7.31c8.43-17.47,31.81-36.32,54.87-36.32
	c18.06,0,35.08,8.89,45.53,23.77l0.18,0.25h84.78l0.18-0.26c10.45-14.89,27.47-23.78,45.53-23.78c23.08,0,46.45,18.86,54.87,36.33
	c1.14,2.36,0.99,5.09-0.41,7.31c-1.39,2.22-3.78,3.54-6.41,3.54h-40.47v16.89h40.49c2.62,0,5.01,1.33,6.41,3.55
	c1.4,2.23,1.55,4.96,0.41,7.31c-8.42,17.46-31.79,36.31-54.87,36.31c-18.06,0-35.08-8.89-45.53-23.77l-0.18-0.25h-84.79l-0.18,0.25
	C123.16,208.47,106.14,217.36,88.08,217.36z M264.28,121.25c-22.33,0-40.49,18.16-40.49,40.49s18.16,40.49,40.49,40.49
	c12.5,0,25.01-8.2,32.56-15.88l1.01-1.03h-33.56c-4.18,0-7.58-3.39-7.58-7.56v-32.04c0-4.18,3.4-7.58,7.58-7.58h33.56l-1.01-1.03
	C289.27,129.44,276.74,121.25,264.28,121.25z M55.53,186.33c7.56,7.67,20.08,15.87,32.55,15.87c22.33,0,40.49-18.17,40.49-40.5
	c0-22.33-18.16-40.49-40.49-40.49c-12.49,0-25,8.2-32.55,15.88l-1.01,1.03h33.55c4.18,0,7.58,3.4,7.58,7.58v32.04
	c0,4.18-3.4,7.58-7.58,7.58H54.51L55.53,186.33z M211.18,178.17l-0.23-0.77c-1.52-5.17-2.3-10.44-2.3-15.68s0.77-10.52,2.3-15.68
	l0.23-0.77H141.2l0.23,0.77c1.52,5.16,2.3,10.44,2.3,15.68c0,5.22-0.77,10.5-2.3,15.68l-0.23,0.77H211.18z"/>
<path class="st0" d="M120.1,425.41c-12.85,0-23.35-10.44-23.42-23.28c-0.04-6.25,2.36-12.14,6.77-16.6
	c4.41-4.46,10.27-6.94,16.52-6.98h0.15c12.84,0,23.35,10.45,23.42,23.28c0.08,12.91-10.36,23.48-23.27,23.57H120.1z M120.06,393.37
	c-2.3,0.01-4.46,0.92-6.08,2.57c-1.62,1.65-2.5,3.81-2.49,6.11c0.03,4.71,3.89,8.55,8.62,8.55c2.32-0.01,4.5-0.92,6.13-2.57
	c1.62-1.65,2.5-3.81,2.49-6.11c-0.03-4.71-3.89-8.55-8.62-8.55H120.06z"/>
<path class="st0" d="M392.42,465.46c-0.29,0-0.58-0.02-0.87-0.04l-0.23-0.01l-0.24-0.02c-0.21-0.01-0.39-0.03-0.56-0.03H122.22
	c-0.14,0-0.95,0.06-0.95,0.06c-0.24,0.02-0.5,0.04-0.75,0.04h-0.41c-0.33,0-0.68-0.02-1.01-0.04l-0.12-0.01
	c-0.25-0.02-0.48-0.03-0.74-0.04H0.57v-14.63h79.01l-1.21-1.06c-13.71-11.99-21.63-29.23-21.74-47.31
	c-0.11-16.94,6.39-32.92,18.3-45c11.91-12.06,27.81-18.76,44.76-18.87h0.4c34.78,0,63.26,28.3,63.48,63.08
	c0.1,16.94-6.4,32.92-18.31,44.99c-0.97,0.99-2.06,1.95-3.08,2.84l-1.49,1.32h191.15l-1.2-1.06l-1.03-0.9
	c-0.58-0.51-1.22-1.06-1.8-1.63c-12.06-11.9-18.76-27.8-18.88-44.77c-0.1-16.95,6.4-32.93,18.31-44.99
	c11.91-12.06,27.81-18.76,44.77-18.87h0.41c16.79,0,32.62,6.5,44.58,18.3c12.07,11.92,18.77,27.82,18.87,44.77
	c0.1,16.95-6.4,32.93-18.31,44.99c-0.84,0.86-1.76,1.67-2.65,2.46l-1.92,1.69h78.96v14.63H394.54l-0.69,0.04l-0.25,0.02
	c-0.28,0.02-0.52,0.04-0.77,0.04h-0.22L392.42,465.46L392.42,465.46z M119.8,353.32c-13,0.08-25.18,5.22-34.31,14.47
	c-9.13,9.25-14.11,21.5-14.03,34.5c0.17,26.66,22,48.36,48.67,48.36h0.31c13-0.08,25.19-5.22,34.32-14.47
	c9.13-9.25,14.11-21.5,14.03-34.5c-0.17-26.66-22-48.36-48.67-48.36H119.8z M392.14,353.32c-13,0.08-25.19,5.22-34.32,14.47
	c-9.13,9.25-14.11,21.5-14.03,34.5c0.08,13,5.22,25.19,14.47,34.32c9.16,9.05,21.29,14.03,34.18,14.03h0.31
	c13-0.08,25.19-5.22,34.33-14.48c9.13-9.25,14.11-21.5,14.03-34.5c-0.08-12.99-5.22-25.18-14.47-34.31
	c-9.16-9.05-21.29-14.03-34.18-14.03H392.14z"/>
<path class="st0" d="M392.45,425.41c-12.84,0-23.35-10.44-23.42-23.28c-0.04-6.25,2.36-12.14,6.77-16.6
	c4.41-4.46,10.27-6.94,16.52-6.98c13.14,0.22,23.49,10.45,23.57,23.28c0.08,12.91-10.36,23.48-23.27,23.57H392.45z M392.39,393.37
	c-2.29,0.01-4.45,0.92-6.07,2.56c-1.62,1.64-2.5,3.81-2.49,6.12c0.03,4.71,3.9,8.55,8.62,8.55c2.32-0.01,4.49-0.92,6.13-2.56
	c1.62-1.64,2.5-3.81,2.49-6.12c-0.03-4.71-3.89-8.55-8.62-8.55H392.39z"/>
</svg>
