<svg xmlns="http://www.w3.org/2000/svg" viewBox="0 0 22 12.03">
  <path d="M18.93,7.65c.73.69,1.5,1.34,2.16,2.09a6.25,6.25,0,0,1,.77,1.08.76.76,0,0,1-.49,1.2h-3.2a2.55,2.55,0,0,1-2-.8c-.45-.44-.86-.91-1.28-1.36a3.42,3.42,0,0,0-.58-.49.68.68,0,0,0-1.07.25,3.28,3.28,0,0,0-.34,1.44c0,.73-.26.92-1,1a8.54,8.54,0,0,1-4.58-.95,10,10,0,0,1-3.09-2.8,37.24,37.24,0,0,1-4.06-7C-.15.73,0,.43.67.42c1,0,2.09,0,3.14,0a.91.91,0,0,1,.87.63A19,19,0,0,0,6.81,4.86a3.23,3.23,0,0,0,.8.85.49.49,0,0,0,.83-.24,2.39,2.39,0,0,0,.18-.79,10.93,10.93,0,0,0,0-2.8,1.18,1.18,0,0,0-1-1.07C7.24.75,7.28.64,7.43.47a1.17,1.17,0,0,1,1-.47H12c.57.11.69.36.77.91V4.8c0,.21.12.85.52,1s.53-.14.72-.34a11.86,11.86,0,0,0,2-3c.24-.48.45-1,.66-1.47a.77.77,0,0,1,.82-.54h3.48a1.56,1.56,0,0,1,.31,0c.59.09.75.34.57.89a8.37,8.37,0,0,1-1.39,2.33C20,4.42,19.34,5.17,18.76,6s-.48,1.07.17,1.69Z" />
</svg>
