<svg version="1.1" id="menu-ico" xmlns="http://www.w3.org/2000/svg" xmlns:xlink="http://www.w3.org/1999/xlink" x="0px" y="0px" viewBox="0 0 22 12.5" width="30px" height="18px">
<g>
	<g id="Layer_3_42_">
		<g>
			<path d="M6.1,8.4c-1.1,0-2.1,0.9-2.1,2.1s0.9,2.1,2.1,2.1c1.1,0,2.1-0.9,2.1-2.1S7.2,8.4,6.1,8.4z M6.1,11.5
				C5.5,11.5,5,11,5,10.4c0-0.6,0.5-1.1,1.1-1.1s1.1,0.5,1.1,1.1C7.2,11,6.7,11.5,6.1,11.5z"/>
			<path d="M17.5,8.3c-1.1,0-2.1,0.9-2.1,2.1c0,1.1,0.9,2.1,2.1,2.1c1.1,0,2.1-0.9,2.1-2.1C19.6,9.2,18.6,8.3,17.5,8.3z M17.5,11.5
				c-0.6,0-1.1-0.5-1.1-1.1s0.5-1.1,1.1-1.1c0.6,0,1.1,0.5,1.1,1.1C18.6,11,18.1,11.5,17.5,11.5z"/>
			<path d="M21.8,5.9V1.5c0-0.4,0-0.9-0.4-1.2C21.1,0,20.7,0,20.4,0c-7,0-11.5,0-13.1,0C6,0,4.4,1.1,2.7,3.2C2,4,1.4,4.9,1,5.5
				c-1.9,2.5-0.9,4.8,1.2,4.8c0.2,0,0.6,0,1.4,0C3.7,9,4.8,7.9,6.1,7.9c1.3,0,2.4,1.1,2.5,2.4c2.7,0,5.6,0,6.4,0
				c0-1.3,1.1-2.4,2.5-2.4c1.3,0,2.4,1.1,2.5,2.4C22.5,10.1,22,7,21.8,5.9z M6.4,6.2H5.5C5.4,6.2,5.3,6.1,5.3,6s0.1-0.2,0.2-0.2h0.9
				c0.1,0,0.2,0.1,0.2,0.2C6.6,6.1,6.5,6.2,6.4,6.2z M7.2,4.7l-4.5,0c0,0,0,0,0-0.1C4,3,5.7,1,7.2,0.9L7.2,4.7L7.2,4.7z M12.2,4.7
				l-4.3,0V0.9c0.9,0,2.4,0,4.3,0V4.7z M17.2,4.7l-4.3,0V0.9c1.3,0,2.7,0,4.3,0V4.7z M20.8,4.7l-2.9,0V0.9c0.8,0,1.6,0,2.4,0
				c0.1,0,0.3,0,0.4,0c0,0,0.1,0.1,0.1,0.5V4.7z"/>
		</g>
	</g>
</g>
</svg>
